<?xml version="1.0" standalone="no"?>
<!DOCTYPE svg PUBLIC "-//W3C//DTD SVG 20010904//EN"
 "http://www.w3.org/TR/2001/REC-SVG-20010904/DTD/svg10.dtd">
<svg version="1.0" xmlns="http://www.w3.org/2000/svg"
 width="1605.000000pt" height="1958.000000pt" viewBox="0 0 1605.000000 1958.000000"
 preserveAspectRatio="xMidYMid meet">
<metadata>
Created by potrace 1.16, written by Peter Selinger 2001-2019
</metadata>
<g transform="translate(0.000000,1958.000000) scale(0.100000,-0.100000)"
fill="#000000" stroke="none">
<path d="M5732 16554 c4 -17 1 -22 -16 -22 -20 0 -104 -38 -206 -93 -64 -34
-135 -109 -208 -217 -58 -87 -61 -93 -38 -90 46 6 29 -17 -28 -37 -48 -17 -58
-18 -65 -6 -6 9 -15 11 -27 6 -18 -8 -18 -8 -1 -12 9 -3 17 -7 17 -9 0 -10
-104 -199 -137 -249 -43 -67 -55 -80 -75 -88 -10 -3 -18 -11 -18 -16 0 -5 -11
-12 -24 -15 -13 -3 -26 -15 -29 -26 -7 -26 -27 -26 -27 0 0 11 -5 20 -11 20
-7 0 -9 -10 -5 -25 4 -16 -1 -36 -14 -57 -11 -18 -20 -40 -20 -50 0 -9 -16
-54 -36 -100 -57 -131 -83 -221 -94 -321 -13 -119 -20 -148 -31 -141 -5 3 -9
-2 -9 -11 0 -12 -6 -15 -21 -10 -12 4 -19 3 -17 -1 2 -5 12 -26 22 -47 14 -32
19 -37 31 -27 8 7 15 19 15 26 0 19 15 18 34 -2 18 -18 21 -40 6 -49 -5 -3
-10 -15 -10 -26 0 -10 -6 -19 -12 -19 -7 0 -24 -3 -37 -7 -17 -4 -22 -2 -19 7
2 7 12 14 22 16 24 3 32 12 20 23 -5 5 -35 6 -69 1 -36 -4 -47 -8 -27 -9 35
-1 37 -3 22 -32 -8 -15 -7 -19 5 -19 18 0 18 4 0 -100 -17 -98 -40 -181 -62
-229 -19 -42 -77 -101 -98 -101 -9 0 -14 -4 -11 -8 3 -5 -1 -20 -8 -34 -9 -16
-10 -30 -4 -36 5 -5 4 -19 -3 -36 -11 -22 -10 -29 1 -36 10 -6 12 -34 6 -137
-5 -100 -3 -146 9 -204 9 -41 22 -113 29 -162 11 -73 11 -89 -1 -99 -11 -9
-10 -15 9 -35 25 -27 27 -22 -29 -61 -16 -11 -13 -12 18 -7 l37 5 -10 -45 c-5
-25 -7 -54 -3 -63 21 -50 -5 -244 -36 -270 -11 -10 -19 -29 -19 -49 0 -20 -5
-33 -12 -33 -19 0 -16 -90 4 -120 10 -16 18 -59 22 -115 5 -77 37 -238 66
-340 16 -57 23 -135 11 -135 -6 0 -11 -4 -11 -10 0 -5 7 -10 15 -10 11 0 15
-13 17 -52 1 -29 1 -64 -1 -78 -1 -14 -1 -51 -1 -82 1 -70 -15 -133 -41 -159
-13 -13 -18 -27 -14 -40 4 -11 2 -25 -3 -32 -22 -29 -21 -86 3 -132 14 -25 38
-91 54 -148 17 -56 37 -122 46 -147 9 -25 20 -66 24 -92 7 -41 6 -48 -8 -48
-11 0 -8 -7 12 -25 33 -31 34 -49 5 -62 -18 -8 -11 -9 30 -5 54 5 68 -6 30
-23 -25 -11 -44 -85 -26 -96 15 -9 5 -164 -11 -183 -8 -9 -11 -26 -7 -39 3
-13 0 -32 -8 -42 -12 -16 -12 -25 0 -59 8 -22 21 -47 28 -56 14 -15 95 -191
136 -293 14 -36 20 -68 17 -86 -5 -24 0 -34 29 -61 25 -22 33 -37 28 -48 -14
-35 -22 -97 -13 -107 14 -14 11 -87 -6 -118 -9 -19 -12 -35 -6 -45 5 -10 6
-31 4 -48 -3 -18 0 -35 6 -38 6 -4 11 -16 11 -27 0 -11 6 -22 14 -25 28 -11
126 -175 126 -211 0 -10 13 -38 30 -63 16 -24 28 -45 26 -47 -2 -2 -22 4 -46
12 -63 22 -72 18 -18 -9 l47 -23 -32 -16 -32 -16 31 0 c37 -1 48 -19 31 -55
-11 -24 -30 -36 -67 -42 -48 -9 -120 -17 -152 -18 -20 -1 -40 -4 -43 -8 -10
-9 -45 3 -45 16 0 12 -49 15 -67 3 -7 -4 -32 -7 -56 -5 -40 3 -43 5 -39 27 4
20 2 22 -17 16 -12 -4 -21 -2 -21 4 0 6 6 11 14 11 8 0 12 8 9 23 -3 15 2 31
13 42 18 17 17 18 -14 13 -18 -2 -32 -1 -32 4 0 15 -19 8 -23 -9 -4 -17 -5
-17 -6 0 -1 20 -21 23 -21 3 0 -15 -46 -56 -62 -56 -5 0 -8 6 -7 13 4 21 -12
46 -26 41 -7 -3 -15 2 -18 10 -3 8 -25 25 -49 38 -73 39 -207 27 -325 -28 -61
-28 -49 -98 23 -133 55 -27 219 -72 299 -82 44 -5 117 -19 162 -29 75 -18 520
-69 788 -90 103 -8 412 -24 695 -35 69 -3 159 -7 200 -10 512 -36 1970 -33
3060 5 1070 37 1960 106 2056 158 12 6 24 9 27 6 6 -7 138 20 197 39 88 28 93
72 10 101 -30 10 -73 22 -95 27 -22 4 -71 15 -110 24 -38 9 -88 19 -110 21
-73 7 -140 13 -185 19 -25 2 -94 7 -155 11 -60 3 -112 8 -115 9 -3 2 -34 6
-70 10 -35 3 -71 10 -79 14 -9 5 -21 7 -26 5 -6 -3 -31 2 -55 9 -25 7 -72 15
-104 16 -33 1 -63 4 -66 6 -3 2 -37 6 -75 9 -39 4 -97 11 -130 16 -33 5 -100
11 -150 14 -93 6 -170 26 -170 45 0 5 -6 16 -12 23 -17 16 -16 96 2 191 18 97
19 107 1 107 -14 0 -30 -49 -28 -85 0 -11 -2 -14 -4 -7 -12 27 -23 10 -22 -32
1 -45 -11 -66 -44 -79 -34 -12 -19 -33 20 -28 23 3 12 -17 -14 -23 -15 -4 -27
-6 -28 -4 -1 2 -8 11 -15 20 -11 15 -9 21 15 42 25 21 27 26 15 40 -17 20 -7
33 13 17 10 -8 16 -9 21 -1 3 5 5 10 3 11 -31 7 -48 7 -53 -1 -3 -6 -10 -10
-16 -10 -5 0 4 27 21 60 17 34 28 65 25 71 -4 5 3 26 15 45 13 23 18 44 14 57
-5 16 -3 19 10 14 9 -4 16 -2 16 3 0 6 -5 10 -10 10 -6 0 -6 7 1 19 10 15 7
24 -16 55 -21 28 -25 39 -16 50 16 19 22 103 12 165 -8 52 -8 53 16 48 16 -3
31 3 46 19 12 13 29 24 37 24 8 0 26 7 40 16 23 14 20 14 -52 12 -81 -4 -90 2
-60 35 12 14 13 21 5 24 -20 7 -3 32 19 28 16 -3 19 0 15 15 -3 11 1 23 8 28
8 4 14 9 14 12 0 3 5 18 11 35 6 16 9 37 7 47 -3 9 1 22 8 28 8 6 17 25 21 42
8 39 40 94 46 78 5 -17 32 -3 56 29 18 25 19 32 9 62 -7 19 -16 39 -20 46 -4
6 -3 14 3 18 13 8 13 52 -1 61 -6 3 -26 -10 -46 -31 -40 -42 -71 -43 -51 0 6
14 15 25 20 25 4 0 8 5 8 12 0 6 7 19 15 28 8 9 26 57 39 106 56 213 68 251
88 284 47 77 79 142 74 148 -3 3 -6 2 -6 -2 0 -4 -9 -2 -20 4 -15 8 -20 21
-20 55 0 24 -4 46 -9 50 -6 3 -8 26 -6 50 4 50 9 46 -80 49 -37 1 -42 4 -60
43 -12 26 -27 43 -37 43 -10 0 -18 5 -18 11 0 6 -8 8 -18 5 -10 -4 -33 1 -50
10 -46 22 -67 15 -67 -23 0 -24 3 -29 13 -21 20 17 14 -13 -7 -39 -20 -23 -51
-31 -51 -13 0 6 7 10 16 10 10 0 14 7 12 18 -2 9 -10 16 -17 14 -7 -1 -19 5
-25 14 -11 15 -15 15 -52 -4 -21 -12 -32 -21 -23 -22 25 0 43 -26 24 -34 -23
-8 -18 -25 10 -32 14 -3 25 -10 25 -16 0 -5 -5 -6 -12 -2 -8 5 -9 2 -5 -9 4
-10 0 -20 -10 -25 -17 -10 -10 -32 11 -32 8 0 16 -9 19 -20 6 -25 -8 -26 -22
-2 -8 14 -11 14 -12 2 -1 -8 0 -22 1 -29 1 -8 -5 -20 -14 -27 -14 -10 -15 -13
-1 -24 8 -7 15 -23 15 -36 0 -17 6 -24 20 -24 21 0 27 -15 10 -25 -5 -3 -10
-14 -10 -23 0 -9 -17 -25 -37 -35 -34 -17 -38 -17 -49 -3 -17 23 -20 20 -21
-21 0 -21 2 -32 4 -25 3 6 9 12 14 12 6 0 6 -7 1 -17 -5 -10 -12 -33 -15 -50
-6 -28 -4 -33 13 -33 29 0 24 -15 -5 -16 -15 -1 -25 3 -25 12 0 8 -4 14 -9 14
-13 0 -21 -42 -10 -56 6 -7 5 -15 -5 -23 -10 -8 -16 -9 -21 -1 -9 15 -22 12
-22 -5 0 -8 7 -14 16 -13 11 2 15 -4 14 -20 -2 -16 4 -25 21 -32 13 -4 26 -18
29 -29 3 -12 1 -19 -4 -16 -4 3 -17 -3 -27 -13 -10 -10 -24 -16 -30 -14 -7 2
-12 0 -11 -5 1 -4 1 -16 0 -27 -1 -15 -4 -16 -16 -6 -8 7 -15 11 -16 9 -8 -38
-1 -73 16 -85 20 -14 20 -15 -2 -20 -27 -7 -29 -17 -7 -38 14 -15 13 -16 -8
-16 -21 0 -24 -4 -20 -35 3 -27 1 -35 -12 -35 -9 0 -15 -6 -13 -12 1 -8 -7
-12 -21 -10 -17 1 -25 -4 -29 -18 -3 -11 -12 -20 -20 -20 -12 0 -13 -3 -4 -13
8 -10 5 -22 -14 -47 -14 -19 -25 -42 -25 -51 0 -10 -5 -21 -10 -24 -6 -4 -8
-10 -5 -15 3 -5 -5 -16 -17 -24 -26 -18 -48 -22 -31 -5 6 6 9 28 6 50 -4 24
-2 39 5 39 6 0 13 19 17 43 4 23 10 47 14 52 14 23 29 78 25 90 -3 7 -1 16 5
20 16 9 14 50 -3 64 -11 9 -16 3 -25 -33 -7 -28 -19 -50 -32 -56 -11 -7 -21
-10 -22 -8 -1 2 -8 13 -14 25 -11 19 -10 24 4 31 9 6 17 19 18 31 1 16 -3 20
-17 15 -10 -3 -18 -1 -18 5 0 6 7 11 15 11 21 0 19 28 -2 33 -10 2 -30 -3 -45
-10 -16 -7 -28 -9 -28 -4 0 5 4 11 10 13 5 2 11 14 14 28 2 14 5 25 6 25 1 0
3 14 6 32 4 32 -9 52 -21 33 -10 -16 -25 -12 -19 5 4 8 12 15 20 15 8 0 14 5
14 10 0 6 6 10 14 10 8 0 17 4 20 9 3 5 -5 8 -18 7 -13 0 -22 -4 -19 -8 2 -5
0 -8 -6 -8 -5 0 -17 -3 -27 -7 -14 -5 -16 -3 -10 13 5 10 9 25 9 32 0 6 8 12
17 12 9 0 16 9 17 20 1 11 -4 19 -10 17 -7 -1 -11 4 -10 11 2 6 -5 12 -15 12
-18 1 -48 20 -50 33 -1 4 -5 7 -9 7 -14 0 -8 -35 6 -46 12 -10 11 -13 -8 -19
-14 -4 -24 -17 -28 -36 -7 -38 -21 -46 -38 -23 -10 14 -10 21 -2 27 7 5 -2 6
-20 3 -19 -3 -35 -1 -39 6 -4 7 -3 8 4 4 7 -4 12 -3 12 3 0 5 -8 12 -17 14
-13 3 -10 5 7 6 24 2 24 3 3 11 -32 13 -63 1 -62 -24 0 -11 -2 -36 -5 -53 -5
-33 7 -53 20 -32 5 8 8 8 14 0 4 -8 15 -3 34 14 15 14 31 25 37 25 14 0 11
-28 -3 -33 -9 -3 -3 -15 16 -36 31 -32 28 -35 -24 -31 -14 1 -26 6 -28 11 -2
5 -15 6 -28 3 -15 -4 -24 -2 -24 5 0 6 -11 11 -23 11 -19 0 -29 11 -47 48 -12
26 -27 55 -32 65 -7 14 -5 24 6 36 12 13 13 20 5 28 -14 14 17 143 34 143 5 0
4 6 -2 14 -7 9 -8 17 -2 20 5 3 7 15 4 26 -3 11 0 20 6 20 7 0 9 9 5 24 -3 14
-1 27 6 31 9 6 9 10 -1 16 -11 7 -9 9 6 9 11 0 28 12 37 28 l17 27 1 -27 c0
-15 -5 -30 -11 -34 -16 -10 -8 -234 9 -234 30 0 0 -39 -32 -41 -12 -1 1 -5 27
-9 27 -5 55 -14 64 -21 8 -7 27 -15 42 -16 20 -2 22 -1 11 6 -16 10 -18 37 -5
83 7 29 28 28 23 0 -1 -10 1 -17 6 -17 5 0 8 23 7 51 -1 27 4 69 12 92 8 23
11 42 6 42 -28 0 1 42 47 68 17 10 16 11 -11 12 l-30 1 24 20 c24 20 25 21 8
52 -17 30 -17 35 -2 71 9 22 14 48 11 59 -3 11 -1 28 5 38 5 10 5 28 1 41 -10
29 -4 60 10 52 7 -5 9 4 6 23 -4 26 -2 29 19 25 18 -3 22 -1 17 12 -3 9 -1 22
5 30 6 7 11 31 10 52 0 59 6 78 30 90 l22 12 -26 6 c-26 7 -27 8 -10 26 20 22
13 53 -10 44 -8 -3 -15 -1 -15 5 0 14 11 14 44 1 16 -6 27 -6 31 0 4 6 -1 13
-9 16 -11 4 -15 20 -14 55 1 28 5 52 10 55 5 3 6 9 3 14 -3 5 -14 2 -24 -7
-15 -12 -17 -22 -11 -50 8 -33 8 -34 -19 -28 -18 4 -32 1 -39 -8 -7 -8 -23
-12 -37 -9 -18 3 -25 0 -25 -11 0 -18 -24 -29 -46 -20 -27 10 -33 46 -19 119
7 38 12 83 11 101 -1 21 4 33 13 35 13 3 13 5 0 18 -19 21 -23 50 -6 50 25 0
27 49 3 66 l-21 15 25 21 c14 12 18 19 8 15 -11 -4 -18 1 -22 16 -9 33 -8 35
17 39 25 3 26 37 0 51 -11 7 -12 12 -2 23 6 8 11 32 11 54 -1 22 2 39 6 36 4
-2 8 12 10 32 3 42 30 167 42 197 5 11 12 40 16 65 3 25 11 51 16 57 6 7 8 20
4 28 -3 10 -2 13 4 10 7 -4 10 6 10 27 -2 84 19 211 37 230 23 22 53 15 53
-13 0 -16 7 -18 45 -15 51 4 63 -5 69 -55 10 -70 28 -145 42 -167 8 -12 12
-27 8 -33 -11 -18 -5 -101 10 -149 8 -25 14 -38 15 -29 1 9 10 19 22 22 12 3
18 10 15 15 -3 6 0 12 8 15 11 4 13 23 10 81 -4 54 -1 76 7 76 8 0 9 3 0 14
-6 7 -12 24 -12 37 -2 27 10 112 17 118 2 2 -3 12 -11 21 -14 16 -14 18 0 23
23 9 19 47 -5 47 -11 0 -20 4 -20 10 0 6 25 8 60 6 40 -2 60 1 59 8 -4 34 2
44 29 42 15 -1 33 -5 40 -10 18 -11 27 1 13 18 -6 8 -11 39 -10 72 2 55 -1 64
-42 122 -59 84 -109 171 -109 188 0 18 -29 32 -67 30 -17 0 -29 2 -26 7 2 4
-7 7 -21 7 -14 0 -27 -4 -31 -9 -8 -15 -149 -1 -158 15 -4 8 -13 14 -19 14
-12 0 -6 -38 17 -100 11 -30 15 -58 10 -87 -4 -26 -2 -43 4 -43 5 0 11 6 14
13 10 30 57 -113 57 -176 0 -21 7 -45 15 -53 8 -9 16 -24 16 -35 2 -27 3 -33
12 -46 13 -20 -15 -15 -43 7 -14 11 -33 20 -42 20 -9 0 -24 10 -33 23 -8 12
-26 22 -38 22 -19 1 -23 -3 -19 -22 3 -18 0 -23 -15 -23 -22 0 -73 42 -73 60
0 14 21 12 39 -4 24 -22 89 36 98 87 8 53 -11 47 -42 -13 -29 -58 -56 -66 -74
-21 -7 16 -22 33 -34 39 -12 6 -16 11 -8 11 8 1 5 8 -9 19 -20 16 -23 28 -24
103 -1 67 -5 89 -18 103 -15 15 -24 62 -19 102 4 31 -78 14 -151 -32 -46 -29
-61 -31 -53 -4 5 15 2 20 -13 20 -11 0 -22 5 -24 12 -3 7 -26 12 -59 12 -35 1
-58 6 -66 16 -9 11 -14 12 -24 3 -15 -15 -39 -5 -39 16 0 17 -18 41 -31 41 -3
0 -9 -18 -12 -41 -3 -22 -13 -49 -23 -60 -9 -10 -14 -22 -10 -26 4 -4 10 -3
14 3 4 5 22 11 40 12 36 3 41 -12 17 -44 -8 -10 -15 -28 -15 -39 0 -11 -7 -28
-14 -37 -16 -21 -40 -24 -33 -4 3 8 -7 17 -29 24 -43 13 -48 -8 -6 -25 27 -11
27 -11 4 -18 l-23 -8 27 -13 c30 -16 47 -19 24 -4 -8 5 -11 12 -7 17 4 4 16 2
26 -4 11 -7 22 -9 25 -5 4 3 19 6 33 7 20 0 29 7 34 25 4 14 7 21 8 16 1 -5 9
-2 19 6 9 8 30 18 46 22 23 6 27 9 15 17 -10 6 -10 9 -1 9 7 0 20 -9 29 -20
10 -11 23 -20 30 -20 7 0 13 -6 13 -14 0 -8 8 -17 18 -19 10 -3 6 -5 -11 -6
-16 0 -26 -5 -23 -9 3 -5 6 -25 8 -45 1 -20 5 -34 9 -31 15 9 19 -15 7 -35 -9
-15 -9 -25 0 -46 15 -32 2 -55 -30 -55 -17 0 -18 -3 -9 -14 7 -8 8 -17 3 -20
-5 -3 -8 -21 -7 -40 3 -29 0 -33 -16 -29 -10 3 -19 0 -19 -6 0 -6 7 -11 16
-11 11 0 14 -5 10 -16 -3 -9 -9 -27 -12 -40 -3 -13 -10 -21 -15 -18 -14 8 -11
-19 6 -59 13 -31 13 -36 0 -41 -10 -3 -15 -19 -15 -45 0 -22 -4 -50 -9 -64 -8
-21 -13 -54 -27 -175 -2 -24 -13 -69 -23 -100 -10 -32 -22 -73 -26 -92 l-7
-35 21 19 c11 11 21 30 21 43 0 25 7 28 30 13 12 -8 12 -12 2 -18 -7 -5 -10
-16 -6 -25 3 -10 1 -17 -6 -17 -6 0 -9 -4 -6 -9 3 -5 -4 -39 -16 -77 -15 -48
-18 -69 -10 -72 8 -2 8 -8 -2 -18 -16 -16 -28 -97 -23 -162 3 -47 0 -56 -25
-65 -14 -5 -16 -15 -11 -56 5 -41 2 -54 -16 -77 -22 -28 -28 -50 -11 -39 6 3
10 1 10 -4 0 -6 -9 -11 -21 -11 -12 0 -17 -4 -14 -11 4 -6 -2 -13 -14 -16 -28
-7 -27 -33 1 -33 20 0 20 -1 4 -19 -14 -15 -14 -20 -4 -25 7 -3 -3 -4 -24 -2
-30 4 -37 1 -42 -17 -8 -30 -7 -47 2 -46 4 1 14 1 22 0 13 -1 13 -2 0 -11 -13
-9 -13 -11 -1 -19 12 -8 12 -13 3 -24 -7 -8 -10 -21 -6 -30 3 -8 1 -24 -5 -35
-9 -17 -8 -21 7 -25 15 -4 15 -5 0 -6 -20 -1 -39 -80 -37 -155 1 -41 4 -47 13
-34 11 15 13 15 24 -3 16 -25 15 -29 -8 -29 -11 0 -20 -7 -20 -16 0 -11 -6
-14 -22 -8 -20 6 -21 5 -9 -10 12 -14 11 -16 -3 -16 -19 0 -22 -16 -3 -23 9
-3 9 -7 0 -17 -6 -7 -9 -19 -6 -26 3 -8 2 -21 -1 -30 -5 -14 -8 -14 -21 0 -18
18 -20 37 -2 31 7 -3 13 4 13 20 1 14 -2 25 -7 25 -5 0 -4 12 1 26 6 14 10 45
10 69 0 34 -3 43 -14 39 -17 -6 -36 -50 -38 -85 -1 -13 -5 -29 -9 -34 -12 -16
-40 -146 -33 -156 3 -5 2 -9 -3 -9 -13 0 -32 -52 -33 -90 0 -19 -2 -54 -2 -77
-1 -24 -5 -43 -10 -43 -4 0 -8 -11 -8 -25 0 -13 -4 -34 -9 -47 -24 -64 -34
-107 -37 -160 -1 -32 -5 -66 -9 -77 -10 -31 -15 -63 -20 -116 -7 -70 -16 -108
-27 -122 -7 -9 -7 -13 -1 -13 12 0 5 -48 -8 -56 -5 -3 -9 -16 -9 -29 0 -13 -6
-26 -12 -29 -10 -5 -10 -7 0 -12 14 -7 17 -34 3 -34 -5 0 -7 -9 -4 -20 3 -11
0 -20 -6 -20 -6 0 -11 7 -11 15 0 8 -7 15 -15 15 -8 0 -15 -4 -15 -10 0 -5 -8
-10 -17 -9 -11 0 -13 3 -5 6 6 2 12 11 12 19 0 8 -6 14 -12 15 -7 1 -2 4 12 8
17 5 24 14 23 27 -6 53 -13 78 -25 86 -9 7 -6 8 10 5 14 -3 22 0 22 8 0 7 3
15 8 18 4 2 1 2 -6 0 -9 -2 -11 3 -7 17 5 15 2 20 -10 20 -11 0 -15 5 -12 15
4 8 2 17 -3 20 -16 10 -12 35 5 35 17 0 20 35 4 46 -8 4 -7 9 2 15 11 7 10 9
-3 9 -10 0 -18 -4 -18 -10 0 -5 -14 -7 -31 -5 -40 5 -50 15 -15 15 l28 0 -23
37 c-13 20 -17 33 -10 29 9 -6 12 -1 9 20 -2 16 -7 28 -13 27 -5 -1 -10 12
-11 28 -1 15 3 26 7 23 5 -3 9 4 9 15 0 10 5 21 12 23 7 3 0 17 -19 36 -33 34
-53 41 -53 17 0 -8 -4 -15 -10 -15 -5 0 -10 6 -10 14 0 8 -5 18 -10 21 -6 4
-9 1 -8 -6 2 -6 -3 -14 -10 -16 -8 -3 -10 1 -5 12 5 14 2 16 -14 11 -19 -6
-21 -3 -18 39 1 27 -2 45 -9 45 -6 1 -1 9 12 19 12 11 22 27 22 36 0 10 5 15
14 12 8 -3 18 5 25 19 6 13 16 24 23 24 9 0 9 -3 0 -12 -18 -18 -14 -30 8 -23
24 8 27 -12 5 -41 -8 -10 -14 -23 -14 -29 0 -5 6 -1 14 9 20 26 30 14 17 -22
-8 -24 -7 -33 6 -46 10 -10 13 -16 7 -15 -26 4 -26 -3 -1 -26 30 -28 51 -33
42 -10 -3 9 0 15 9 15 17 0 20 36 4 45 -13 8 18 45 38 45 13 0 17 12 14 38 -1
6 6 12 15 12 11 0 14 5 10 17 -4 9 -1 20 6 25 9 5 8 8 -5 8 -11 0 -21 -9 -24
-20 -6 -22 -19 -26 -25 -8 -5 14 -38 4 -38 -12 0 -5 9 -10 20 -10 27 0 25 -24
-5 -55 -38 -38 -55 -33 -53 15 1 22 6 40 12 40 6 0 4 4 -4 10 -12 7 -12 10 4
16 18 7 18 8 1 20 -9 7 -23 10 -31 7 -8 -3 -14 0 -14 6 0 6 5 11 10 11 6 0 10
11 10 25 0 14 8 29 20 35 11 6 18 15 15 19 -3 5 2 11 10 15 9 3 15 0 15 -9 0
-9 10 -15 26 -15 22 0 25 3 20 23 -3 12 -6 27 -6 34 0 6 -12 14 -27 16 -18 3
-14 4 10 3 20 -1 37 2 37 6 0 5 -4 8 -9 8 -6 0 -22 11 -37 25 -15 14 -31 25
-36 25 -5 0 -4 9 2 21 7 11 9 31 6 44 -3 13 -1 25 4 27 6 2 1 14 -12 28 -12
13 -23 29 -23 35 0 21 -20 16 -26 -7 -5 -23 -6 -23 -12 -2 -4 12 -5 28 -1 37
4 11 -1 16 -17 19 -13 2 -29 14 -36 28 l-13 25 0 -27 c0 -34 -13 -42 -28 -18
-9 15 -8 22 4 35 21 21 35 19 41 -6 6 -21 7 -21 21 -3 10 13 16 15 19 7 3 -7
9 -13 15 -13 6 0 7 7 3 18 -4 9 -8 34 -10 55 -1 29 2 37 12 33 8 -3 11 -2 8 4
-3 5 3 14 14 19 28 15 33 14 23 -6 -8 -13 -4 -20 15 -30 14 -7 29 -13 33 -13
13 0 19 26 10 40 -7 11 -11 11 -24 1 -13 -11 -16 -11 -16 2 0 13 13 20 45 25
6 1 10 -3 10 -10 0 -6 6 -13 14 -16 9 -3 11 1 6 17 -5 15 -2 21 9 21 9 0 16 6
16 13 0 9 2 9 8 1 5 -9 11 -8 20 2 11 12 10 14 -6 14 -27 0 -34 11 -19 28 7 9
7 13 1 9 -6 -3 -16 5 -23 19 -11 25 -31 25 -31 -1 0 -9 6 -12 15 -9 11 5 15
-1 15 -22 l0 -29 -28 33 c-30 35 -42 33 -42 -6 0 -23 -3 -24 -37 -18 -21 3
-46 6 -56 6 -10 0 -15 5 -12 10 3 6 17 10 31 10 13 0 24 5 24 10 0 6 -9 10
-21 10 -11 0 -17 5 -14 10 15 24 -22 7 -44 -20 -14 -19 -33 -30 -50 -31 -17
-1 -20 -3 -8 -6 19 -5 23 -28 7 -38 -5 -3 -10 -17 -10 -31 0 -21 -3 -23 -18
-15 -10 5 -24 6 -32 1 -9 -6 -18 -3 -27 8 -16 21 -17 59 -1 68 8 5 7 10 -5 19
-13 10 -12 15 14 45 19 21 27 40 24 52 -4 10 -2 18 4 18 6 0 8 19 5 47 -3 31
0 49 8 55 10 6 10 8 -1 8 -9 0 -10 4 -4 13 6 6 13 29 17 50 4 20 10 37 14 38
4 0 30 1 57 2 49 2 50 2 51 -28 0 -16 4 -48 8 -69 6 -29 10 -36 17 -25 6 10 9
2 10 -26 l2 -40 7 40 c4 22 8 30 9 19 0 -12 10 -24 21 -27 24 -6 38 12 19 24
-7 4 -10 12 -5 16 4 4 14 -1 22 -11 13 -19 14 -19 33 3 11 13 24 20 29 17 5
-3 15 10 22 29 14 36 30 47 30 21 0 -8 -5 -16 -12 -18 -16 -6 27 -48 48 -48
11 0 14 6 9 20 -5 14 -2 20 9 20 9 0 16 4 16 9 0 13 -28 22 -35 11 -11 -17
-20 -11 -21 14 -1 14 4 27 12 30 8 3 14 1 14 -3 0 -5 10 -7 22 -3 13 3 19 1
15 -5 -4 -6 2 -13 12 -16 13 -3 23 3 31 18 7 13 21 26 31 28 13 4 18 13 17 29
-2 18 2 23 20 22 27 -1 27 1 2 28 -15 16 -17 25 -9 35 9 10 8 13 -5 13 -9 0
-16 4 -16 9 0 5 10 7 22 3 18 -4 20 -2 14 14 -18 42 -15 65 9 76 23 10 42 69
24 76 -5 2 -9 8 -9 13 0 6 4 8 9 5 5 -3 14 1 21 9 11 13 10 21 -1 41 -11 22
-11 27 1 36 12 7 10 9 -7 5 -23 -5 -33 8 -12 15 6 2 12 16 12 30 0 19 6 28 22
32 25 6 40 59 24 86 -7 13 -9 13 -10 0 -1 -8 0 -27 1 -42 1 -22 -2 -26 -19
-21 -27 7 -37 40 -18 61 8 9 12 23 10 30 -3 6 1 12 9 12 14 0 53 39 46 46 -2
2 -16 -3 -31 -11 -24 -12 -27 -12 -27 3 0 9 -15 24 -32 32 -35 17 -49 40 -23
40 9 0 13 5 10 10 -3 6 -15 10 -25 10 -11 0 -34 13 -52 29 -30 26 -31 31 -20
55 7 15 8 25 3 21 -16 -9 -23 13 -10 37 10 21 10 22 -4 8 -9 -8 -19 -30 -22
-49 -5 -29 -35 -88 -35 -68 0 3 -11 2 -25 -3 -22 -9 -25 -7 -25 15 0 14 -4 25
-10 25 -5 0 -10 6 -10 14 0 8 -10 16 -22 18 -17 2 -22 9 -21 26 3 24 -14 31
-23 8 -3 -8 -15 -11 -29 -8 -20 3 -22 7 -13 22 7 10 18 16 25 13 7 -3 20 0 27
6 11 9 15 9 19 -1 9 -23 25 10 19 40 -5 23 -3 25 10 14 13 -11 17 -9 22 13 5
18 13 25 32 25 l25 0 -25 27 c-22 24 -28 25 -50 15 -21 -9 -26 -9 -26 3 0 7 5
17 11 21 6 3 9 15 6 25 -3 11 0 25 7 32 7 7 16 19 19 27 4 8 6 -2 4 -22 -2
-26 1 -38 10 -38 7 0 13 -4 13 -10 0 -5 5 -10 11 -10 5 0 7 5 3 12 -5 8 -2 9
9 5 12 -5 17 -1 17 14 0 11 7 22 16 26 9 3 14 13 11 24 -3 11 -1 19 4 19 5 0
9 4 9 9 0 5 5 22 12 38 6 15 12 33 12 38 1 6 12 12 26 13 34 5 48 18 48 46 0
33 -44 45 -64 19 -11 -15 -13 -16 -14 -2 0 29 80 85 98 67 7 -7 12 -4 16 10 4
11 16 22 26 25 11 3 20 10 20 16 0 6 -7 8 -15 5 -8 -4 -15 -1 -15 5 0 6 7 11
15 11 8 0 15 9 15 20 0 21 -24 28 -35 10 -11 -18 -27 -11 -22 10 7 28 -1 25
-61 -20 -29 -21 -102 -69 -163 -105 -84 -50 -116 -64 -134 -59 -22 5 -25 3
-25 -22 0 -31 -28 -83 -65 -124 -65 -71 -143 -209 -129 -231 2 -5 -2 -19 -10
-31 -21 -33 -67 -159 -61 -168 3 -4 -2 -13 -11 -20 -8 -7 -13 -19 -10 -26 3
-8 -1 -17 -7 -21 -7 -5 -24 -37 -36 -73 -37 -103 -128 -282 -161 -317 -33 -36
-66 -43 -73 -15 -25 90 -30 155 -18 252 13 110 24 151 78 305 40 115 80 253
88 308 4 23 18 51 35 69 31 32 31 48 0 48 -11 0 -24 9 -30 20 -9 17 -6 24 20
46 16 14 30 32 30 40 0 17 -12 18 -27 3 -6 -6 -23 -9 -36 -5 -19 4 -31 22 -53
73 l-29 68 0 250 c0 137 4 313 8 390 7 117 5 159 -12 257 -10 64 -26 127 -35
140 -9 12 -16 31 -16 41 0 19 -47 66 -67 67 -6 0 -19 10 -28 23 -8 12 -18 21
-20 20 -13 -7 -16 -1 -6 11 10 12 8 19 -8 35 -12 12 -21 24 -21 29 -1 4 -12 6
-25 4 -14 -2 -25 1 -25 7 0 15 -37 14 -43 -1 -2 -7 -8 -10 -12 -6 -4 4 0 19 9
32 9 15 12 27 6 31 -15 9 -12 35 4 35 9 0 12 9 9 28 -3 19 -2 23 5 14 23 -33
30 57 8 115 -24 65 -41 128 -38 137 2 5 -4 16 -13 26 -13 14 -13 19 -3 22 11
4 11 8 0 21 -8 9 -11 25 -7 37 6 18 2 20 -39 20 -33 0 -46 4 -46 14 0 21 27
27 41 10 7 -9 16 -11 21 -6 12 12 -34 146 -76 220 -56 99 -61 106 -72 117 -6
5 -21 25 -33 42 -12 18 -34 36 -49 39 -45 11 -53 23 -36 49 9 13 13 29 9 35
-10 16 -19 12 -30 -12 -6 -12 -21 -25 -35 -29 -25 -6 -25 -6 9 -21 24 -11 29
-17 18 -21 -11 -4 -14 -16 -11 -41 4 -34 2 -36 -23 -36 -22 0 -25 -2 -13 -10
8 -5 11 -10 5 -10 -5 0 -3 -5 5 -11 11 -8 12 -12 3 -15 -10 -4 -10 -10 0 -27
16 -29 30 -38 41 -27 17 17 27 11 14 -10 -11 -16 -10 -22 6 -33 12 -9 17 -20
13 -31 -9 -22 10 -59 25 -50 7 4 8 3 4 -4 -11 -18 17 -52 44 -53 l25 -1 -25
-8 c-40 -13 -45 -12 -78 20 -32 30 -52 38 -52 20 0 -5 -7 -10 -15 -10 -8 0
-15 5 -15 11 0 5 -4 8 -9 4 -5 -3 -16 3 -23 12 -7 10 -23 24 -36 31 -19 10
-25 9 -41 -7 -22 -22 -11 -41 24 -41 24 0 57 -61 37 -68 -7 -2 -12 -10 -12
-19 0 -21 -39 -7 -68 25 -22 23 -22 37 -1 37 5 0 8 5 7 10 -2 5 -7 9 -12 7
-20 -7 -45 10 -39 25 4 11 2 14 -5 9 -7 -4 -12 -2 -12 4 0 6 -4 9 -9 6 -4 -3
-17 1 -27 9 -18 13 -18 14 -1 20 21 9 23 35 2 35 -8 0 -19 9 -25 20 -8 16 -8
18 4 14 8 -3 17 -1 21 5 3 6 0 11 -7 12 -7 1 -2 5 12 9 15 5 18 8 9 9 -18 1
-35 31 -19 31 6 0 10 -4 10 -10 0 -5 5 -10 10 -10 6 0 8 11 6 26 -3 17 0 27
12 32 17 7 17 8 1 23 -11 12 -21 14 -30 7 -10 -7 -11 -11 -2 -14 16 -7 5 -34
-13 -34 -8 0 -14 -4 -14 -8 0 -4 -9 -8 -20 -9 -17 -2 -20 2 -15 19 6 17 4 19
-17 13 -22 -7 -22 -7 -5 12 22 25 24 51 2 33 -12 -10 -15 -9 -15 4 0 20 48 71
58 61 4 -4 -2 -13 -13 -21 -17 -13 -18 -16 -5 -24 23 -15 30 -12 40 15 10 26
4 55 -11 55 -5 0 -9 5 -9 10 0 6 -10 24 -22 40 -16 22 -27 28 -41 24 -16 -5
-19 -3 -14 15 3 12 1 19 -3 16 -5 -3 -12 0 -15 6 -4 6 -18 8 -31 5 -17 -5 -24
-2 -24 8 0 8 -8 15 -17 16 -72 3 -80 5 -76 15 2 7 -3 18 -12 25 -8 7 -15 19
-15 26 0 22 -34 16 -57 -8 -33 -38 -35 -46 -8 -44 14 0 27 7 30 14 2 6 9 12
15 12 15 0 12 -27 -6 -45 -10 -10 -14 -24 -10 -38 9 -35 56 -238 66 -281 4
-22 6 -45 3 -52 -2 -7 1 -23 8 -36 8 -14 14 -71 16 -153 1 -71 6 -152 11 -180
4 -27 7 -71 5 -97 -1 -27 2 -48 7 -48 6 0 10 -18 10 -40 0 -22 -4 -40 -10 -40
-5 0 -10 -4 -10 -10 0 -5 7 -10 16 -10 14 0 14 -3 3 -16 -8 -10 -9 -18 -2 -22
15 -10 23 -64 12 -85 -7 -12 -5 -28 7 -52 10 -22 14 -47 10 -68 -3 -17 -2 -48
4 -66 6 -23 6 -39 -1 -47 -7 -8 -7 -14 1 -19 6 -4 7 -12 1 -23 -5 -10 -5 -41
1 -77 7 -38 7 -60 1 -62 -11 -4 -2 -74 10 -73 4 0 12 0 17 0 13 0 13 47 0 55
-8 5 -8 11 -1 19 7 9 7 16 -1 24 -9 9 -9 12 1 12 7 0 9 5 6 10 -3 6 -1 10 4
10 6 0 10 5 8 12 -1 7 3 13 8 13 39 4 75 19 75 31 0 8 3 14 8 14 31 -1 41 -60
10 -60 -25 0 -23 -32 4 -54 l22 -19 -22 -10 c-12 -6 -22 -14 -22 -20 0 -5 6
-4 14 2 9 7 17 8 20 2 3 -5 0 -11 -6 -14 -9 -3 -7 -10 7 -21 19 -15 19 -15 1
-16 -18 0 -18 -1 -1 -20 10 -11 14 -20 9 -20 -5 0 -10 -20 -11 -45 -1 -27 2
-43 7 -40 19 12 9 -10 -17 -38 -19 -20 -22 -28 -11 -24 12 4 15 2 12 -8 -5
-12 -10 -12 -36 1 -17 9 -27 11 -24 5 4 -6 2 -11 -3 -11 -7 0 -7 -7 1 -21 11
-17 10 -22 -4 -30 -10 -5 -15 -16 -12 -24 4 -9 0 -15 -10 -15 -9 0 -16 -8 -16
-20 0 -26 3 -25 37 6 18 17 29 21 32 13 2 -7 10 -3 21 12 15 19 20 21 34 10 9
-7 13 -18 9 -24 -10 -17 -12 -77 -2 -77 5 0 9 -7 9 -16 0 -9 9 -18 20 -21 11
-3 20 -10 20 -15 0 -5 5 -6 10 -3 14 9 12 -5 -5 -35 -9 -15 -14 -19 -15 -10 0
12 -2 13 -9 1 -5 -7 -14 -10 -21 -6 -9 6 -9 9 1 16 12 7 11 9 -1 10 -8 1 -27
3 -42 5 -20 2 -31 -3 -38 -17 -9 -16 -7 -19 14 -19 13 0 26 3 29 8 2 4 2 2 1
-5 -2 -7 7 -15 19 -19 21 -7 21 -7 2 -14 -11 -4 -23 -3 -27 4 -4 6 -10 7 -14
3 -4 -4 0 -13 10 -20 13 -9 16 -20 11 -40 -4 -15 -11 -24 -16 -21 -5 3 -9 -5
-9 -18 0 -18 2 -20 10 -8 8 12 10 11 10 -7 0 -14 -6 -23 -16 -23 -19 0 -14
-22 7 -28 11 -3 11 -2 -1 7 -12 9 -11 11 8 11 13 0 20 4 17 10 -3 6 1 10 9 10
9 0 16 -7 16 -15 0 -8 -6 -15 -12 -15 -9 0 -8 -4 2 -11 11 -8 12 -12 3 -16 -7
-2 -13 -20 -13 -38 0 -19 -4 -37 -10 -40 -5 -3 -10 -2 -10 3 0 12 -80 55 -88
48 -3 -4 -1 -15 6 -24 7 -9 16 -27 22 -39 10 -25 26 -32 17 -9 -8 19 22 29 40
15 22 -19 12 -63 -14 -67 -20 -3 -21 -5 -9 -25 13 -23 14 -31 4 -57 -13 -33
-17 -83 -8 -99 8 -15 4 -17 -26 -16 -33 1 -44 -8 -24 -20 6 -4 7 -11 4 -17 -4
-6 1 -17 11 -25 17 -12 17 -13 2 -13 -9 0 -17 -4 -17 -10 0 -5 6 -10 13 -10 9
0 9 -2 -1 -8 -7 -5 -10 -16 -7 -24 4 -9 0 -18 -10 -22 -9 -3 -18 0 -21 9 -4 8
-11 15 -16 15 -12 0 -1 -52 12 -60 5 -3 -9 -7 -31 -7 l-40 -2 7 32 c4 18 8 45
8 62 1 20 7 31 19 33 9 2 17 7 17 12 0 5 -6 7 -14 4 -7 -3 -16 2 -20 11 -3 10
-2 14 5 9 7 -4 7 1 -1 15 -7 14 -19 21 -33 20 -12 -2 -32 3 -44 9 -20 11 -23
10 -24 -5 -1 -24 -19 44 -22 84 -2 17 -10 40 -20 51 -18 20 -24 72 -7 72 6 0
6 9 0 24 -5 15 -5 27 3 35 8 8 8 11 -1 11 -7 0 -18 15 -25 32 -11 28 -11 37 2
60 9 14 19 24 24 21 4 -2 3 -11 -3 -18 -8 -9 -6 -14 5 -19 11 -4 15 1 15 19 0
17 7 25 23 28 18 4 17 5 -6 6 -20 1 -31 7 -34 21 -6 24 -11 25 -35 3 -15 -14
-18 -14 -18 -1 0 8 11 21 25 28 15 8 23 20 21 27 -3 8 1 16 9 19 16 7 20 40 6
48 -5 4 -8 17 -6 31 1 14 -3 25 -9 25 -6 0 -4 5 4 10 13 9 13 11 0 19 -9 6
-19 6 -27 -1 -9 -7 -13 -7 -13 1 0 6 9 16 20 23 11 7 20 19 20 27 0 11 -4 9
-14 -5 -13 -17 -15 -17 -21 -3 -4 11 -14 15 -26 12 -15 -4 -17 -9 -9 -18 13
-15 -3 -30 -20 -20 -5 3 -10 1 -10 -4 0 -6 -6 -11 -14 -11 -9 0 -12 7 -9 20 3
11 10 20 17 20 6 0 4 5 -4 10 -20 13 -33 13 -25 0 10 -16 -12 -12 -29 6 -17
17 -19 27 -10 60 4 16 12 20 34 18 16 -2 31 0 34 5 9 14 96 -11 96 -27 0 -9 3
-13 6 -9 12 12 -8 46 -29 49 -25 3 -37 38 -13 38 21 0 31 21 15 31 -8 5 -17 3
-21 -4 -6 -9 -8 -9 -8 1 0 7 -4 11 -8 8 -5 -3 -22 -1 -38 4 -24 7 -25 8 -6 9
23 1 32 21 10 21 -10 0 -10 2 0 9 10 6 8 10 -10 16 l-23 7 25 7 25 7 -32 17
c-36 19 -43 37 -14 37 13 0 18 7 17 23 -1 12 -7 21 -14 19 -7 -1 -12 7 -12 18
0 11 4 20 9 20 5 0 7 8 4 18 -2 11 -20 23 -41 30 -20 6 -28 10 -17 10 49 -1
55 2 55 27 0 14 -5 25 -11 25 -6 0 -8 9 -4 20 4 11 2 20 -4 20 -6 0 -11 -4
-11 -10 0 -5 -4 -10 -10 -10 -6 0 -5 10 2 25 6 14 16 25 21 25 5 0 7 9 4 20
-3 11 0 20 5 20 7 0 7 5 1 13 -5 6 -9 24 -8 40 0 15 -4 27 -11 27 -13 0 -29
54 -20 68 3 5 18 12 33 15 55 12 59 22 30 61 -15 19 -27 42 -27 50 0 9 -6 13
-14 10 -8 -3 -16 1 -18 11 -3 14 -7 13 -34 -7 l-32 -24 20 -27 c18 -25 18 -27
3 -34 -11 -4 -21 0 -27 10 -5 10 -21 17 -38 17 -20 0 -30 5 -30 15 0 8 -4 15
-9 15 -5 0 -11 -7 -15 -15 -3 -8 -17 -15 -31 -15 -20 0 -25 5 -25 26 0 21 4
25 20 21 13 -3 20 0 20 9 0 8 -4 14 -10 14 -5 0 -10 4 -10 9 0 6 12 9 26 8 41
-3 52 24 25 59 -21 27 -21 29 -5 41 10 7 13 13 7 13 -12 0 -22 38 -15 58 2 7
12 12 23 12 12 0 16 5 13 15 -4 8 -2 15 4 15 14 0 22 51 12 71 -7 12 -3 19 14
29 16 8 22 18 18 32 -4 16 -1 18 20 13 23 -6 26 -3 30 24 2 17 0 35 -6 41 -7
7 -6 10 3 10 8 0 11 6 7 16 -4 10 1 22 11 30 10 7 14 14 8 14 -5 0 -17 5 -25
10 -13 9 -11 13 10 31 16 14 19 19 8 15 -14 -4 -17 0 -15 22 2 15 7 34 12 42
5 8 10 22 10 30 0 10 8 14 27 12 14 -2 29 2 33 8 3 5 11 8 16 5 15 -10 10 12
-6 25 -12 10 -15 9 -15 -5 0 -12 -5 -15 -16 -11 -9 3 -19 6 -23 6 -4 0 -7 27
-8 60 -1 33 -7 69 -14 81 -8 16 -8 20 1 14 9 -6 9 -3 2 12 -12 22 -5 66 9 57
5 -3 9 1 9 8 0 16 35 48 52 48 7 0 25 -12 40 -27 27 -25 28 -26 28 -6 0 22
-43 63 -66 63 -8 0 -11 12 -10 35 2 20 0 38 -5 40 -4 3 -9 -12 -11 -32 -2 -31
-7 -39 -26 -41 -32 -5 -104 -79 -122 -127 -5 -14 -14 -25 -20 -25 -6 0 -9 -4
-5 -9 3 -6 -4 -8 -16 -6 -15 3 -19 0 -15 -10 3 -8 0 -14 -7 -12 -6 1 -19 -13
-28 -31 -9 -18 -21 -34 -25 -34 -16 -3 -30 -23 -31 -45 -2 -25 -31 -73 -44
-73 -5 0 -9 -5 -9 -12 0 -19 -41 -57 -55 -52 -7 3 -15 -3 -18 -13 -4 -14 -5
-15 -6 -2 -1 17 -45 24 -66 11 -23 -14 -35 -9 -35 14 0 13 -4 24 -10 24 -5 0
-10 -5 -10 -11 0 -7 -10 -9 -25 -7 -20 4 -25 1 -26 -16 -1 -17 -2 -18 -6 -3
-2 9 -11 17 -19 17 -8 0 -14 4 -14 10 0 5 7 7 15 4 12 -5 12 0 5 28 -6 18 -10
35 -10 38 0 3 -5 -2 -10 -10 -8 -12 -10 -9 -10 13 0 19 5 27 18 27 16 1 16 1
0 14 -10 7 -18 18 -18 25 0 17 -18 13 -29 -6 -8 -14 -10 -15 -11 -3 0 8 9 21
20 28 11 6 17 18 14 25 -3 9 27 38 83 78 101 74 150 99 256 133 70 22 134 55
112 57 -6 0 -26 1 -45 2 -29 2 -36 6 -38 27 -2 14 -8 30 -14 35 -7 7 -9 3 -6
-11z m-139 -586 c12 -7 23 -14 25 -14 2 -1 -2 -21 -8 -44 -13 -47 -45 -84 -66
-76 -16 6 -19 -9 -4 -19 13 -8 -10 -44 -25 -39 -6 3 -25 0 -41 -7 -16 -6 -23
-13 -16 -16 6 -3 10 -9 6 -14 -3 -5 2 -9 10 -9 20 0 21 -34 1 -50 -8 -7 -13
-15 -10 -19 4 -7 -18 -137 -31 -178 -7 -24 -19 -30 -29 -14 -3 5 -1 12 5 16 6
4 8 11 5 16 -4 5 -3 15 2 21 4 7 6 25 4 40 -1 14 2 29 8 33 24 14 7 52 -29 68
-8 4 0 4 18 1 27 -5 32 -2 32 13 0 11 -5 24 -12 31 -9 9 -9 12 0 12 7 0 12 4
12 10 0 5 -6 8 -12 6 -7 -1 -10 -1 -6 1 4 2 4 11 1 19 -3 8 0 14 6 14 6 0 11
5 11 10 0 6 -7 10 -15 10 -8 0 -15 5 -15 10 0 6 -5 10 -11 10 -6 0 -8 -9 -4
-21 5 -15 3 -20 -5 -17 -15 5 -24 68 -10 68 6 0 10 7 10 15 0 8 9 15 19 15 26
0 36 17 21 35 -15 19 -5 34 19 28 13 -3 21 2 25 15 5 15 14 19 41 16 19 -1 35
2 35 7 0 12 6 11 33 -3z m1383 -265 c-1 -46 5 -80 16 -103 10 -20 20 -70 23
-115 9 -145 23 -284 30 -294 3 -6 2 -11 -4 -11 -6 0 -8 -6 -5 -14 3 -7 7 -33
8 -57 2 -24 16 -112 30 -196 24 -139 25 -155 12 -188 -16 -38 -27 -43 -50 -20
-8 8 -26 15 -40 15 -33 0 -37 8 -25 59 8 37 7 45 -8 57 -11 8 -13 13 -5 14 10
0 10 5 2 20 -6 11 -10 35 -9 52 1 18 -2 42 -7 53 -7 18 -6 19 11 5 17 -14 18
-13 12 2 -3 9 -1 19 6 22 7 2 3 5 -8 5 -12 1 -16 4 -9 9 7 4 13 18 14 32 3 37
1 47 -9 32 -9 -14 -4 139 6 178 10 38 10 53 0 80 -15 41 -16 73 -3 110 14 41
12 110 -4 120 -18 11 -18 162 0 182 8 10 15 17 16 18 1 0 1 -30 0 -67z m104
-1053 c0 -27 30 -38 42 -17 8 15 11 14 29 -4 20 -20 20 -21 2 -35 -17 -13 -17
-15 0 -25 10 -6 17 -22 17 -39 0 -16 7 -48 16 -70 12 -31 14 -44 5 -54 -7 -8
-14 -37 -18 -65 -5 -41 -3 -51 9 -51 10 0 13 -8 10 -30 -3 -22 -10 -30 -24
-30 -10 0 -17 4 -14 9 3 5 -1 11 -9 15 -8 3 -15 11 -15 17 0 8 4 8 15 -1 13
-11 14 -8 10 21 -15 90 -17 142 -7 135 15 -9 20 24 8 54 -15 37 -37 60 -58 60
-23 0 -88 63 -88 86 0 10 5 14 15 10 8 -3 22 -9 30 -12 17 -7 21 11 5 21 -12
7 -4 25 11 25 5 0 9 -9 9 -20z m550 -3249 c0 -10 47 -61 52 -56 2 2 14 -5 28
-15 l25 -20 -27 0 c-32 0 -35 -8 -11 -25 17 -12 11 -35 -10 -35 -7 0 -6 4 3
10 13 8 13 10 -1 10 -29 0 -30 -28 -2 -35 27 -6 53 9 53 31 0 20 17 26 52 19
30 -7 31 -8 13 -21 -14 -11 -15 -14 -4 -14 8 0 22 -13 32 -29 22 -37 21 -40
-3 -34 -10 3 -19 8 -18 12 3 23 -5 22 -26 -2 -20 -23 -28 -27 -43 -19 -10 6
-17 13 -15 16 4 10 -38 -3 -79 -24 -26 -14 -57 0 -62 26 -2 14 0 27 4 30 5 3
9 0 9 -5 0 -6 8 -11 19 -11 14 0 18 6 16 25 -2 16 2 25 11 25 18 0 30 48 17
68 -5 9 -16 18 -24 20 -8 3 -11 1 -7 -2 3 -4 2 -21 -4 -38 -8 -22 -13 -26 -19
-16 -12 18 -11 41 1 33 6 -4 10 6 10 24 0 16 -5 31 -12 33 -6 2 -8 10 -4 16 8
14 26 16 26 3z m2056 -1743 c-1 -16 4 -23 17 -22 12 1 17 -6 17 -27 0 -21 -5
-29 -17 -29 -34 0 -43 -14 -34 -48 5 -18 6 -32 1 -32 -4 0 -11 -16 -14 -35 -4
-19 -11 -35 -17 -35 -6 0 -7 -5 -3 -12 5 -7 3 -8 -5 -4 -8 5 -14 0 -18 -13 -3
-11 -14 -23 -24 -26 -10 -4 -19 -11 -19 -16 0 -5 -4 -9 -9 -9 -11 0 -8 61 3
79 5 7 16 9 28 5 14 -4 19 -2 16 7 -2 7 -12 13 -22 15 -25 4 -31 13 -13 19 11
5 14 16 10 46 -4 24 -2 39 5 39 6 0 10 12 9 27 -2 22 3 29 21 31 12 2 22 10
22 19 0 13 3 13 15 3 12 -10 15 -9 15 7 0 17 8 33 15 33 1 0 2 -10 1 -22z"/>
<path d="M6336 14848 c-3 -13 -6 -35 -6 -50 0 -14 -6 -28 -12 -31 -10 -3 -10
-9 0 -26 7 -11 8 -21 3 -21 -5 0 -8 -24 -7 -52 1 -29 -1 -63 -6 -76 -4 -13 -9
-46 -10 -74 -1 -27 -6 -52 -11 -55 -5 -3 -3 -9 3 -13 15 -9 19 -134 7 -195 -4
-22 -9 -78 -11 -125 -1 -47 -5 -91 -9 -97 -4 -6 -3 -13 2 -15 12 -4 18 -69 8
-85 -9 -14 8 -53 23 -53 5 0 8 17 7 38 -1 44 12 94 27 105 8 5 7 10 -3 16 -9
6 -12 20 -8 42 9 59 12 64 32 71 18 5 18 6 -4 7 -21 1 -23 4 -18 36 3 19 2 35
-2 35 -5 0 -11 14 -13 31 -4 23 -1 33 11 36 14 3 16 19 13 104 -2 56 1 106 7
112 5 7 8 46 6 87 -3 41 -5 97 -7 125 -1 27 -7 53 -13 57 -6 5 -5 8 3 8 7 0
12 15 12 40 0 43 -14 54 -24 18z"/>
<path d="M9790 13192 c0 -5 -11 -14 -25 -20 -18 -9 -25 -19 -25 -41 0 -19 -8
-35 -20 -44 -17 -12 -20 -21 -14 -56 4 -28 3 -41 -5 -41 -6 0 -11 9 -11 20 0
11 -4 20 -8 20 -5 0 -7 -13 -4 -28 3 -24 8 -28 28 -24 13 2 25 -1 25 -7 1 -6
2 -17 3 -23 0 -7 9 -14 19 -16 15 -3 16 0 7 23 -20 53 -8 70 29 39 15 -14 17
-22 9 -45 -5 -15 -16 -30 -24 -33 -8 -3 -14 -17 -14 -31 0 -14 -5 -25 -11 -25
-5 0 -7 -5 -4 -10 4 -6 -1 -23 -11 -38 -10 -15 -17 -31 -15 -37 1 -5 -1 -7 -5
-3 -4 4 -19 -1 -34 -12 -25 -18 -28 -18 -43 -2 -14 13 -17 14 -18 2 -1 -8 -2
-22 -3 -30 0 -8 8 -23 19 -33 14 -13 16 -20 8 -23 -18 -8 -16 -15 12 -48 19
-22 24 -38 22 -67 -2 -21 0 -36 4 -33 4 2 10 0 14 -6 4 -6 15 -4 31 6 29 20
39 15 21 -10 -8 -10 -25 -18 -40 -18 l-27 0 26 -20 c13 -11 31 -17 39 -14 8 3
15 1 15 -4 0 -6 8 -10 18 -10 14 0 15 -2 2 -10 -10 -6 -16 -6 -18 0 -2 6 -13
10 -25 10 -17 0 -19 -2 -8 -9 7 -5 11 -13 7 -19 -3 -6 1 -12 11 -14 15 -3 15
-4 -1 -20 -12 -12 -15 -25 -10 -40 9 -30 22 -38 62 -38 35 0 40 7 16 24 -12 9
-14 21 -8 51 6 35 8 37 20 20 12 -16 15 -16 28 -2 20 19 58 11 54 -12 -2 -10
-14 -16 -33 -16 -26 0 -30 -4 -29 -25 2 -40 16 -99 23 -98 21 2 41 -3 41 -13
0 -6 -8 -8 -19 -4 -24 7 -61 -14 -62 -35 0 -13 -2 -13 -11 1 -10 15 -14 14
-35 -9 -13 -14 -21 -32 -19 -39 8 -19 -8 -16 -35 8 -14 12 -33 19 -46 16 -15
-3 -23 1 -23 9 0 8 -4 14 -10 14 -5 0 -10 -11 -10 -25 0 -21 5 -25 30 -25 22
0 28 -4 24 -15 -7 -18 26 -21 44 -3 9 9 12 9 12 0 0 -6 7 -9 15 -6 8 4 22 0
31 -7 17 -14 74 -23 74 -11 0 12 -14 29 -30 35 -10 3 -7 6 9 6 20 1 21 3 11
16 -10 13 -9 15 9 15 20 0 22 -4 19 -43 -2 -23 -7 -48 -12 -55 -5 -9 -3 -13 5
-11 32 4 60 -2 54 -11 -3 -5 2 -10 13 -10 10 0 25 -11 32 -25 9 -17 16 -21 21
-14 4 7 14 9 23 6 10 -4 16 -2 15 6 -1 6 2 21 7 32 5 11 9 43 9 70 0 28 3 53
7 56 5 3 11 40 15 83 3 44 14 94 25 114 10 20 18 45 18 55 0 10 4 27 10 37 22
41 39 250 20 250 -8 0 -10 9 -5 28 16 65 14 110 -7 129 -26 24 -44 60 -51 104
-5 33 -67 129 -88 137 -5 2 -9 10 -9 18 0 19 -26 18 -34 -1 -3 -8 -15 -15 -26
-15 -18 0 -20 4 -14 35 4 25 3 35 -7 35 -7 0 -9 -3 -6 -7 4 -3 2 -12 -4 -19
-9 -11 -18 -9 -47 11 -37 25 -62 32 -62 17z"/>
<path d="M4516 3013 c-4 -9 -2 -19 3 -22 6 -4 6 -12 1 -20 -7 -12 -17 -10 -60
8 -32 14 -59 19 -73 15 -24 -8 -80 -45 -85 -57 -2 -4 -8 -5 -12 -2 -5 3 -17
-1 -27 -10 -10 -8 -27 -22 -38 -30 -12 -10 -14 -15 -5 -12 20 5 39 -22 40 -54
0 -15 7 -29 15 -33 8 -3 15 -12 15 -21 0 -8 4 -15 10 -15 5 0 6 -8 3 -17 -5
-12 -2 -15 10 -10 9 3 19 2 22 -3 4 -6 13 -10 22 -10 9 0 21 -7 28 -16 9 -13
16 -14 33 -5 18 10 20 9 17 -9 -2 -11 0 -20 6 -20 5 0 9 5 9 10 0 6 7 10 15
10 8 0 15 -7 15 -15 0 -8 3 -14 8 -13 9 3 104 -23 117 -32 6 -4 30 -8 55 -9
24 -1 49 -6 55 -11 5 -4 35 -7 65 -5 39 2 60 -2 73 -13 9 -8 17 -12 17 -8 0 4
9 2 19 -3 10 -6 56 -13 101 -16 45 -3 92 -13 104 -21 12 -7 36 -15 52 -16 16
-1 33 -4 39 -7 18 -10 117 -20 231 -25 45 -2 87 -7 94 -11 7 -4 43 -7 79 -7
75 2 104 -5 95 -20 -4 -7 -2 -8 4 -4 6 4 58 2 114 -5 57 -6 132 -13 168 -15
91 -5 208 -13 255 -18 22 -2 119 -8 215 -12 96 -4 198 -8 225 -9 325 -18 316
-18 334 7 9 13 16 39 16 58 l0 35 120 8 c73 5 185 4 284 -2 184 -12 207 -21
196 -73 -5 -21 -3 -28 9 -28 9 0 16 -5 16 -11 0 -5 4 -8 9 -4 5 3 12 1 15 -4
3 -5 16 -7 28 -3 12 3 19 1 15 -4 -5 -9 489 -12 503 -4 3 2 57 5 120 7 63 1
174 5 245 7 72 3 212 7 313 10 100 3 192 8 203 11 11 4 55 8 97 10 43 2 77 4
77 5 0 2 157 9 230 10 43 1 84 4 89 8 6 3 27 5 48 3 20 -1 45 2 56 8 11 6 62
12 113 13 52 2 96 6 99 9 3 4 41 10 85 13 44 4 105 10 135 15 30 5 58 7 62 5
4 -3 9 0 12 4 3 5 20 8 38 7 18 -2 38 1 43 6 11 8 43 13 150 24 33 4 71 10 85
15 14 5 58 11 98 15 40 3 85 10 99 16 13 5 28 7 33 4 5 -3 32 4 62 14 29 11
78 23 108 26 56 6 118 23 134 37 6 4 28 8 50 9 40 0 97 17 66 18 -8 1 8 12 36
25 28 13 54 32 59 42 7 18 7 18 15 -1 5 -11 9 -14 9 -7 1 7 8 21 17 29 11 11
14 26 10 45 -4 21 -2 27 7 23 6 -4 3 1 -7 9 -11 9 -23 16 -28 16 -4 0 -8 6 -8
13 0 6 -16 24 -34 40 -36 28 -73 34 -104 18 -66 -35 -316 -103 -482 -131 -62
-11 -125 -23 -365 -70 -60 -13 -157 -31 -215 -42 -116 -22 -320 -34 -320 -18
0 6 9 10 19 10 10 0 22 7 25 16 5 14 1 16 -25 10 -17 -3 -40 -6 -50 -6 -9 0
-24 -6 -31 -13 -19 -19 -44 -27 -55 -16 -6 6 -28 1 -59 -13 -27 -12 -60 -23
-74 -25 -14 -2 -50 -7 -80 -12 -30 -5 -84 -13 -120 -16 -296 -28 -357 -31
-660 -27 -74 1 -143 2 -152 2 -10 0 -49 1 -86 1 -37 1 -77 -3 -89 -10 -12 -6
-54 -12 -92 -12 -39 -1 -68 -5 -65 -10 3 -5 1 -9 -5 -9 -5 0 -13 5 -16 11 -7
10 -48 9 -181 -7 -33 -4 -54 -2 -58 5 -4 6 -12 9 -17 6 -5 -4 -15 -3 -21 2
-22 13 -40 12 -69 -3 -18 -9 -30 -10 -34 -4 -3 6 -17 10 -31 10 -15 0 -24 6
-24 16 0 8 -4 13 -9 9 -5 -3 -12 -1 -16 4 -3 6 -12 8 -20 4 -8 -3 -15 0 -15 6
0 7 -9 9 -25 5 -20 -5 -31 0 -50 20 -14 15 -25 31 -25 36 0 5 -5 12 -11 15
-12 8 -49 -23 -49 -41 0 -7 -6 -15 -12 -17 -8 -4 -4 -8 10 -12 25 -8 30 -25 7
-25 -8 0 -15 4 -15 9 0 5 -7 12 -16 15 -14 5 -15 4 -5 -8 8 -10 9 -16 1 -21
-15 -9 -12 -23 8 -29 21 -6 -75 0 -103 7 -11 2 -26 0 -33 -6 -9 -7 -18 -5 -31
7 -18 17 -20 17 -30 -2 -9 -17 -22 -21 -78 -22 -38 -1 -72 -2 -78 -2 -25 -1
-389 14 -460 19 -44 3 -105 4 -135 2 -114 -8 -180 -2 -200 16 -16 14 -23 15
-34 6 -8 -7 -20 -10 -25 -6 -11 6 -52 9 -261 20 -152 7 -337 39 -615 107 -115
29 -244 55 -285 59 -112 12 -153 20 -170 34 -8 7 -42 19 -75 25 -59 13 -134
54 -199 110 -17 14 -52 41 -78 58 -40 27 -47 29 -52 15z"/>
</g>
</svg>
