<?xml version="1.0" standalone="no"?>
<!DOCTYPE svg PUBLIC "-//W3C//DTD SVG 20010904//EN"
 "http://www.w3.org/TR/2001/REC-SVG-20010904/DTD/svg10.dtd">
<svg version="1.0" xmlns="http://www.w3.org/2000/svg"
 width="225.000000pt" height="225.000000pt" viewBox="0 0 225.000000 225.000000"
 preserveAspectRatio="xMidYMid meet">
<metadata>
Created by potrace 1.16, written by Peter Selinger 2001-2019
</metadata>
<g transform="translate(0.000000,225.000000) scale(0.100000,-0.100000)"
fill="#000000" stroke="none">
<path d="M880 1904 c-14 -9 -57 -48 -95 -85 -74 -73 -108 -89 -182 -89 -36 0
-43 3 -43 19 0 11 -11 32 -24 48 -21 24 -32 28 -97 31 -88 5 -132 -13 -151
-63 -11 -31 -14 -33 -69 -37 -46 -3 -66 -11 -95 -34 -78 -62 -74 -31 -74 -662
0 -533 1 -565 19 -600 22 -42 43 -63 88 -86 29 -14 124 -16 963 -16 815 0 935
2 967 15 48 20 71 41 94 88 19 35 19 62 17 611 l-3 574 -31 39 c-56 70 -70 73
-329 73 -126 0 -246 4 -265 10 -23 6 -60 35 -105 81 -39 39 -82 77 -97 85 -21
11 -76 14 -245 14 -186 0 -222 -2 -243 -16z m506 -143 c119 -116 115 -115 417
-121 l259 -5 24 -28 24 -28 0 -551 0 -550 -31 -29 -31 -29 -915 0 c-997 0
-961 -2 -983 56 -6 15 -10 245 -10 564 l0 539 24 28 24 28 259 5 c301 6 295 4
416 120 l72 69 190 1 191 0 70 -69z"/>
<path d="M250 1530 c-25 -25 -28 -114 -4 -148 14 -21 23 -22 128 -22 136 0
141 3 141 97 0 87 -9 93 -142 93 -90 0 -106 -3 -123 -20z"/>
<path d="M1043 1539 c-161 -28 -295 -124 -371 -266 -181 -340 65 -753 448
-753 337 0 581 304 505 629 -41 173 -175 319 -339 370 -77 24 -176 32 -243 20z
m260 -127 c170 -79 271 -270 238 -448 -30 -167 -149 -298 -306 -338 -195 -51
-388 33 -483 211 -124 233 -5 514 253 600 25 8 76 12 135 10 83 -2 104 -7 163
-35z"/>
<path d="M1083 1259 c-75 -14 -132 -56 -167 -126 -57 -113 -7 -255 107 -309
204 -94 410 115 308 314 -46 89 -146 139 -248 121z m114 -109 c45 -27 66 -64
66 -115 0 -157 -212 -198 -268 -51 -47 122 89 235 202 166z"/>
</g>
</svg>
