<?xml version="1.0" standalone="no"?>
<!DOCTYPE svg PUBLIC "-//W3C//DTD SVG 20010904//EN"
 "http://www.w3.org/TR/2001/REC-SVG-20010904/DTD/svg10.dtd">
<svg version="1.0" xmlns="http://www.w3.org/2000/svg"
 width="512.000000pt" height="512.000000pt" viewBox="0 0 512.000000 512.000000"
 preserveAspectRatio="xMidYMid meet">
<metadata>
Created by potrace 1.16, written by Peter Selinger 2001-2019
</metadata>
<g transform="translate(0.000000,512.000000) scale(0.100000,-0.100000)"
fill="#000000" stroke="none">
<path d="M942 4479 c-119 -16 -239 -112 -282 -227 -30 -78 -30 -186 0 -267 21
-57 51 -89 703 -742 l682 -683 -682 -683 c-652 -653 -682 -685 -703 -742 -30
-82 -30 -189 1 -270 31 -83 121 -173 204 -204 81 -31 188 -31 270 -1 58 21 87
49 743 703 l682 682 683 -682 c655 -654 684 -682 742 -703 82 -30 189 -30 270
1 82 31 173 121 203 202 30 79 30 194 1 274 -20 55 -57 93 -702 741 l-682 682
682 683 c652 653 682 685 703 742 30 82 30 189 -1 270 -31 83 -121 173 -204
204 -81 31 -188 31 -270 1 -58 -21 -87 -49 -742 -703 l-683 -682 -682 682
c-637 635 -687 682 -738 700 -67 25 -128 31 -198 22z"/>
</g>
</svg>
