<?xml version="1.0" standalone="no"?>
<!DOCTYPE svg PUBLIC "-//W3C//DTD SVG 20010904//EN"
 "http://www.w3.org/TR/2001/REC-SVG-20010904/DTD/svg10.dtd">
<svg version="1.0" xmlns="http://www.w3.org/2000/svg"
 width="1000.000000pt" height="1000.000000pt" viewBox="0 0 1000.000000 1000.000000"
 preserveAspectRatio="xMidYMid meet">
<metadata>
Created by potrace 1.16, written by Peter Selinger 2001-2019
</metadata>
<g transform="translate(0.000000,1000.000000) scale(0.100000,-0.100000)"
fill="#000000" stroke="none">
<path d="M2857 8004 c-405 -73 -714 -358 -825 -762 l-27 -97 0 -1360 0 -1360
27 -96 c107 -389 406 -674 792 -755 38 -8 72 -16 74 -19 2 -2 -65 -153 -148
-337 -84 -183 -172 -376 -196 -429 -52 -114 -56 -158 -18 -188 49 -38 -150
-122 1920 805 l322 143 1168 4 c1277 4 1199 0 1375 62 349 122 616 449 669
820 8 58 10 450 8 1400 l-4 1320 -22 85 c-28 106 -115 285 -180 370 -160 211
-402 356 -662 395 -140 22 -4155 21 -4273 -1z m4280 -170 c167 -34 300 -103
420 -218 121 -114 185 -215 239 -376 l29 -85 3 -1325 c4 -1426 5 -1396 -49
-1544 -92 -255 -300 -447 -576 -533 l-88 -28 -1184 -3 -1184 -3 -221 -98
c-122 -55 -545 -244 -941 -421 -396 -177 -744 -332 -772 -345 -29 -13 -53 -23
-53 -22 0 2 81 180 180 397 99 217 180 403 180 413 0 10 -13 32 -29 48 -23 23
-38 29 -73 29 -242 1 -492 122 -654 318 -77 92 -150 245 -174 363 -19 90 -20
148 -20 1387 0 1140 2 1302 16 1370 72 350 359 625 714 685 14 2 956 5 2093 6
1849 1 2076 -1 2144 -15z"/>
<path d="M3164 7026 c-39 -33 -39 -89 0 -122 l27 -24 1810 0 1811 0 29 29 c38
38 38 74 0 112 l-29 29 -1811 0 -1810 0 -27 -24z"/>
<path d="M3180 6307 c-54 -27 -61 -99 -13 -137 25 -20 46 -20 1835 -20 l1810
0 29 29 c38 38 38 74 0 112 l-29 29 -1804 0 c-1433 0 -1808 -3 -1828 -13z"/>
<path d="M3180 5577 c-52 -26 -60 -89 -18 -134 l21 -23 1817 0 c1811 0 1816 0
1838 20 46 43 37 109 -18 137 -37 19 -3604 19 -3640 0z"/>
<path d="M3193 4849 c-32 -9 -63 -50 -63 -83 0 -8 12 -28 26 -45 l26 -31 1819
0 c1798 0 1819 0 1839 20 44 44 33 112 -24 135 -29 12 -296 14 -1813 14 -1074
-1 -1791 -4 -1810 -10z"/>
</g>
</svg>
