<?xml version="1.0" standalone="no"?>
<!DOCTYPE svg PUBLIC "-//W3C//DTD SVG 20010904//EN"
 "http://www.w3.org/TR/2001/REC-SVG-20010904/DTD/svg10.dtd">
<svg version="1.0" xmlns="http://www.w3.org/2000/svg"
 width="640.000000pt" height="1280.000000pt" viewBox="0 0 640.000000 1280.000000"
 preserveAspectRatio="xMidYMid meet">
<g transform="translate(0.000000,1280.000000) scale(0.100000,-0.100000)"
fill="#000000" stroke="none">
<path d="M3057 12780 c-139 -26 -229 -55 -329 -107 -382 -197 -602 -593 -567
-1025 34 -435 344 -807 769 -923 118 -33 307 -44 431 -25 463 67 826 436 888
903 15 107 14 185 -4 293 -52 324 -231 586 -514 754 -96 57 -238 106 -379 130
-141 24 -167 24 -295 0z"/>
<path d="M1844 10414 c-251 -42 -501 -168 -690 -347 -241 -228 -387 -524 -423
-859 -15 -132 -15 -3398 -1 -3486 17 -105 46 -167 110 -236 68 -72 131 -109
221 -131 261 -61 506 85 558 333 8 38 11 493 11 1570 0 1167 3 1521 12 1530
18 18 202 16 217 -1 8 -10 12 -1130 13 -4158 3 -3999 4 -4146 21 -4199 74
-218 212 -346 441 -405 112 -29 151 -31 238 -10 172 41 254 83 350 178 62 63
124 176 149 272 10 40 14 542 19 2475 l5 2425 110 0 110 0 5 -2440 c5 -2338 6
-2442 23 -2495 51 -150 154 -275 285 -343 78 -41 241 -87 309 -87 58 0 220 43
285 76 137 68 236 182 286 328 l27 81 3 4144 c1 3030 5 4148 13 4158 13 15
185 18 209 3 13 -8 16 -197 20 -1567 l5 -1558 36 -75 c46 -97 112 -163 207
-208 63 -30 87 -36 168 -40 253 -13 437 133 474 376 7 45 10 623 7 1777 -4
1891 1 1755 -68 1972 -70 222 -185 409 -349 573 -185 186 -376 292 -640 358
l-105 26 -1295 2 c-1064 2 -1310 0 -1376 -12z"/>
</g>
</svg>
