<?xml version="1.0" standalone="no"?>
<!DOCTYPE svg PUBLIC "-//W3C//DTD SVG 20010904//EN"
 "http://www.w3.org/TR/2001/REC-SVG-20010904/DTD/svg10.dtd">
<svg version="1.0" xmlns="http://www.w3.org/2000/svg"
 width="512.000000pt" height="512.000000pt" viewBox="0 0 512.000000 512.000000"
 preserveAspectRatio="xMidYMid meet">
<metadata>
Created by potrace 1.16, written by Peter Selinger 2001-2019
</metadata>
<g transform="translate(0.000000,512.000000) scale(0.100000,-0.100000)"
fill="#000000" stroke="none">
<path d="M1020 4782 c-229 -78 -988 -357 -1002 -370 -29 -25 -21 -78 37 -236
30 -82 55 -151 55 -153 0 -2 16 -11 35 -19 35 -14 40 -12 480 146 244 88 450
161 456 162 7 2 224 -581 538 -1443 l527 -1446 -52 -57 c-102 -113 -155 -252
-156 -411 -2 -185 54 -318 186 -450 60 -60 101 -90 157 -118 244 -120 529 -75
720 113 110 109 168 224 186 370 l8 63 944 344 c520 188 953 350 963 360 10 9
18 30 18 49 0 45 -97 313 -124 342 -28 32 -70 27 -211 -25 l-110 -41 -359 987
c-197 542 -366 999 -375 1015 -32 58 -110 54 -139 -8 -13 -26 -8 -44 79 -282
53 -149 88 -259 83 -263 -9 -9 -1527 -563 -1529 -558 -19 33 -384 1062 -378
1067 8 8 478 180 491 180 4 0 31 -67 61 -150 29 -82 60 -158 67 -169 29 -41
60 -36 272 42 112 41 211 82 222 92 31 28 25 68 -35 230 -30 82 -53 150 -52
151 6 6 500 184 503 181 2 -2 29 -73 59 -158 59 -162 77 -189 127 -189 36 0
78 40 78 74 0 38 -146 429 -166 443 -10 7 -32 13 -48 13 -38 0 -1722 -613
-1747 -635 -9 -9 -20 -27 -23 -40 -4 -16 124 -381 423 -1202 236 -648 434
-1189 439 -1203 l10 -26 -80 16 -81 15 -538 1480 c-296 814 -548 1500 -559
1523 -32 69 -112 146 -183 178 -81 36 -196 43 -277 16z m221 -170 c38 -20 61
-41 81 -72 25 -42 1094 -2968 1086 -2975 -1 -1 -30 -14 -64 -27 l-60 -24 -535
1470 c-354 974 -541 1479 -556 1493 -12 13 -33 23 -47 23 -14 0 -226 -72 -471
-161 -245 -89 -448 -160 -449 -158 -9 10 -46 122 -42 126 2 2 208 78 458 168
504 182 510 184 599 137z m1694 -389 c4 -10 22 -60 40 -110 31 -85 33 -94 17
-102 -31 -15 -202 -74 -206 -70 -12 14 -77 211 -72 217 7 6 193 80 207 81 4 1
10 -7 14 -16z m1345 -1646 c134 -367 241 -669 239 -671 -2 -2 -336 -124 -741
-271 l-738 -268 -47 44 -48 43 -226 621 c-170 465 -223 622 -214 627 7 5 120
46 251 93 180 65 239 83 245 73 5 -7 20 -46 35 -88 66 -187 84 -227 110 -238
14 -7 31 -12 37 -12 20 0 399 139 424 156 42 27 39 54 -22 224 -32 88 -56 162
-54 165 12 11 495 182 500 176 3 -3 115 -306 249 -674z m-867 336 c20 -60 37
-111 37 -114 0 -12 -211 -82 -219 -73 -10 11 -82 206 -78 210 4 4 209 83 217
84 3 0 22 -48 43 -107z m1505 -1105 c12 -34 19 -65 15 -69 -8 -7 -1746 -639
-1757 -639 -3 0 -6 8 -6 18 0 9 -9 37 -20 61 -11 24 -18 46 -16 49 5 4 1745
640 1756 641 3 1 15 -27 28 -61z m-2267 -398 c140 -26 265 -123 331 -257 39
-79 43 -92 46 -182 3 -79 0 -107 -18 -161 -66 -198 -245 -330 -445 -330 -283
1 -509 262 -465 538 42 261 293 440 551 392z"/>
<path d="M2498 1170 c-114 -34 -182 -152 -157 -269 33 -156 209 -229 345 -145
92 57 131 189 85 290 -44 97 -171 155 -273 124z m106 -171 c32 -25 35 -70 6
-99 -42 -42 -113 -11 -113 50 0 22 7 39 22 52 30 23 52 23 85 -3z"/>
</g>
</svg>
