<?xml version="1.0" standalone="no"?>
<!DOCTYPE svg PUBLIC "-//W3C//DTD SVG 20010904//EN"
 "http://www.w3.org/TR/2001/REC-SVG-20010904/DTD/svg10.dtd">
<svg version="1.0" xmlns="http://www.w3.org/2000/svg"
 width="348.000000pt" height="373.000000pt" viewBox="0 0 348.000000 373.000000"
 preserveAspectRatio="xMidYMid meet">
<metadata>
Created by potrace 1.16, written by Peter Selinger 2001-2019
</metadata>
<g transform="translate(0.000000,373.000000) scale(0.100000,-0.100000)"
fill="#000000" stroke="none">
<path d="M2500 3720 c-131 -24 -230 -78 -330 -179 -80 -81 -128 -159 -155
-253 l-16 -58 -959 0 -958 0 -31 -25 c-62 -53 -62 -137 0 -190 l31 -25 958 0
958 0 21 -67 c29 -97 85 -185 168 -263 330 -314 879 -168 1014 270 l17 55 95
5 c107 6 136 22 157 86 14 42 0 91 -36 125 -22 21 -38 25 -121 29 l-95 5 -17
55 c-78 251 -304 425 -566 435 -49 2 -110 0 -135 -5z m262 -272 c79 -36 142
-98 181 -177 29 -60 32 -74 32 -161 0 -87 -3 -101 -32 -161 -39 -79 -102 -140
-181 -177 -49 -23 -70 -27 -152 -27 -82 0 -103 4 -152 27 -76 35 -148 104
-184 175 -27 53 -29 67 -29 163 0 95 3 110 28 160 46 90 107 145 206 187 78
33 200 29 283 -9z"/>
<path d="M722 2470 c-210 -55 -380 -216 -443 -420 l-17 -55 -95 -5 c-83 -4
-99 -8 -121 -29 -55 -52 -55 -130 0 -182 22 -21 38 -25 121 -29 l95 -5 17 -55
c113 -366 525 -542 870 -373 146 72 279 234 321 391 l11 42 959 0 958 0 31 25
c62 53 62 137 0 190 l-31 25 -958 0 -959 0 -16 58 c-44 151 -176 308 -317 376
-138 66 -287 82 -426 46z m300 -262 c75 -35 147 -104 184 -175 27 -53 29 -67
29 -163 0 -96 -2 -110 -29 -163 -36 -71 -108 -140 -184 -175 -49 -23 -70 -27
-152 -27 -82 0 -103 4 -152 27 -79 37 -142 98 -181 177 -29 60 -32 74 -32 161
0 82 4 103 26 151 47 99 128 171 232 205 67 22 190 13 259 -18z"/>
<path d="M1962 1230 c-210 -55 -380 -216 -443 -420 l-17 -55 -715 -5 -715 -5
-26 -24 c-55 -52 -55 -130 0 -182 l26 -24 715 -5 715 -5 17 -55 c80 -257 328
-440 596 -440 261 0 506 180 587 433 l22 67 337 0 337 0 31 25 c16 14 35 41
41 60 15 46 -1 96 -41 130 l-31 25 -337 0 -337 0 -22 68 c-100 309 -430 493
-740 412z m306 -264 c128 -59 212 -187 213 -325 1 -113 -24 -182 -94 -259 -83
-89 -175 -127 -296 -120 -139 8 -261 90 -319 216 -23 49 -27 70 -27 152 1 83
4 102 27 150 73 149 194 223 353 217 63 -2 94 -9 143 -31z"/>
</g>
</svg>
