<?xml version="1.0" standalone="no"?>
<!DOCTYPE svg PUBLIC "-//W3C//DTD SVG 20010904//EN"
 "http://www.w3.org/TR/2001/REC-SVG-20010904/DTD/svg10.dtd">
<svg version="1.0" xmlns="http://www.w3.org/2000/svg"
 width="500.000000pt" height="500.000000pt" viewBox="0 0 500.000000 500.000000"
 preserveAspectRatio="xMidYMid meet">

<g transform="translate(0.000000,500.000000) scale(0.100000,-0.100000)"
fill="#000000" stroke="none">
<path d="M0 2500 l0 -2500 2500 0 2500 0 0 2500 0 2500 -2500 0 -2500 0 0
-2500z m2097 1530 c12 -25 22 -48 23 -52 0 -5 -103 -8 -230 -8 -127 0 -230 4
-230 9 0 16 -71 43 -97 36 -70 -17 -97 -106 -48 -159 13 -14 32 -26 41 -26 16
0 16 -1 1 -18 -23 -25 -21 -35 9 -71 l26 -31 -31 -39 -31 -39 30 -38 31 -37
-31 -32 c-16 -17 -30 -35 -30 -40 0 -5 12 -22 27 -37 24 -25 26 -31 15 -48
-14 -23 0 -27 18 -5 10 12 8 21 -14 49 -14 19 -26 38 -26 41 0 4 11 20 25 37
14 16 25 33 25 38 0 5 -11 22 -25 38 -14 17 -25 32 -25 36 0 3 13 20 30 39
l29 34 -31 37 -30 37 23 25 c27 29 44 32 27 4 -10 -16 -9 -23 8 -42 36 -39 37
-47 10 -79 -32 -38 -32 -42 -1 -84 l26 -33 -31 -36 -32 -36 31 -38 30 -39 -29
-29 c-30 -29 -39 -54 -19 -54 5 0 8 4 5 8 -3 5 8 22 24 37 17 16 30 33 30 38
0 4 -12 24 -26 42 l-26 34 26 34 c14 19 26 37 26 41 0 4 -11 22 -25 41 l-26
33 31 36 32 36 -31 38 -30 39 25 24 c14 13 32 37 40 52 14 27 18 28 81 25 l66
-3 33 -75 33 -75 1 -499 0 -499 226 4 226 4 218 -477 c119 -263 216 -478 215
-478 -1 0 -111 139 -244 309 -133 171 -266 332 -297 360 -68 62 -132 86 -251
95 l-93 8 0 -463 c0 -513 4 -563 54 -637 54 -80 131 -106 343 -119 l113 -6 0
-69 0 -68 -270 0 -270 0 0 54 c0 96 -70 166 -167 166 -30 0 -63 -5 -74 -10
-27 -15 -24 2 6 38 14 17 25 33 25 37 0 3 -11 21 -25 40 l-26 33 26 30 c30 36
31 42 4 76 -14 18 -18 33 -14 48 7 22 6 22 -10 7 -16 -16 -16 -19 8 -54 l26
-38 -25 -32 c-29 -39 -29 -43 1 -79 l23 -29 -24 -32 c-13 -18 -24 -39 -24 -47
0 -21 -36 -52 -45 -39 -3 6 7 28 24 48 l30 36 -29 37 -29 37 30 36 30 37 -26
34 c-20 26 -25 41 -19 58 6 20 5 21 -10 9 -22 -18 -20 -26 10 -67 l26 -34 -26
-34 c-14 -19 -26 -38 -26 -41 0 -3 11 -21 25 -40 l26 -33 -32 -36 c-26 -30
-29 -39 -19 -51 10 -12 10 -21 1 -41 -6 -14 -11 -47 -11 -74 l0 -50 -215 0
-215 0 0 70 0 70 38 0 c64 1 190 27 237 50 25 12 56 36 70 54 49 64 56 124 63
486 6 303 9 335 24 335 9 0 30 -18 47 -39 l32 -39 -33 -34 c-23 -24 -30 -37
-23 -47 46 -62 47 -66 35 -81 -7 -8 -8 -15 -2 -15 5 0 15 7 22 15 10 12 8 21
-14 49 -14 19 -26 38 -26 41 0 4 11 20 25 37 31 37 31 39 -1 78 -29 34 -29 34
4 44 15 5 22 3 22 -6 0 -7 9 -24 20 -38 25 -32 25 -33 -6 -69 l-25 -30 25 -38
25 -37 -25 -34 c-23 -30 -25 -37 -14 -58 8 -13 18 -24 23 -24 6 0 2 9 -8 20
-19 21 -19 20 29 85 6 8 2 23 -12 43 -28 38 -27 44 3 80 l24 29 -26 38 c-25
37 -25 40 -8 49 121 72 184 150 213 265 10 39 21 68 25 65 3 -3 19 3 35 15 37
26 38 26 69 1 24 -19 28 -19 47 -5 37 27 45 27 76 5 25 -18 34 -20 43 -10 9
10 9 11 -3 8 -8 -3 -26 3 -39 13 -30 24 -40 23 -71 0 -24 -19 -25 -19 -54 2
-28 20 -30 20 -58 4 -34 -20 -58 -22 -58 -6 0 6 6 9 14 6 8 -3 20 0 26 8 21
25 49 27 78 6 l28 -20 30 24 29 23 31 -23 c29 -22 33 -23 50 -9 18 14 18 15
-4 9 -14 -4 -31 1 -48 14 -26 21 -26 21 -54 1 -35 -25 -35 -25 -70 0 l-28 20
-27 -22 c-35 -27 -56 -16 -67 35 -18 86 -114 212 -176 231 -12 4 -22 15 -22
25 0 10 -7 24 -16 31 -27 23 -37 50 -23 66 6 8 7 14 1 14 -5 0 -15 -7 -22 -15
-11 -13 -8 -22 19 -55 29 -36 30 -40 12 -40 -31 0 -73 50 -66 79 5 21 4 23 -9
12 -20 -17 -20 -30 1 -53 15 -17 15 -18 -14 -18 l-30 0 -6 343 c-4 275 -8 354
-21 402 -33 117 -88 156 -251 177 l-100 14 -3 58 c-2 32 -1 65 2 72 5 12 86
14 483 12 l478 -3 22 -45z m484 25 c8 -3 21 -22 30 -43 9 -20 37 -80 62 -134
l46 -96 -47 29 c-61 37 -152 68 -225 76 l-59 6 -39 85 c-21 47 -39 87 -39 90
0 7 251 -5 271 -13z m279 -63 c21 -8 61 -87 238 -461 l213 -451 -23 -52 -24
-51 -238 504 c-131 277 -241 510 -244 518 -6 15 28 12 78 -7z m293 -172 c126
-118 179 -224 198 -398 20 -185 8 -173 -146 155 -77 162 -141 300 -143 304
-10 24 23 2 91 -61z m-132 -675 l141 -300 -43 -37 c-46 -39 -157 -108 -175
-108 -6 0 -42 66 -79 148 -62 136 -66 149 -55 177 44 109 53 154 58 288 2 76
6 136 8 134 2 -1 67 -138 145 -302z m671 -431 c170 -41 296 -172 337 -349 7
-28 13 -109 14 -180 l2 -130 -374 -3 -374 -2 6 -50 c3 -28 19 -74 34 -102 51
-93 123 -128 265 -128 107 0 219 22 311 60 l68 28 -3 -126 -3 -127 -65 -23
c-91 -33 -199 -51 -308 -52 -53 0 -91 -4 -88 -9 3 -5 31 -26 62 -46 76 -51
180 -88 342 -121 20 -4 22 -10 22 -74 l0 -70 -164 0 -163 0 -75 162 c-55 122
-79 164 -94 166 -10 1 -47 9 -81 18 l-61 16 -160 350 -160 351 14 60 c41 174
155 309 312 367 103 39 259 45 384 14z"/>
<path d="M1536 3353 c-6 -16 42 -98 52 -88 3 2 -7 21 -22 40 -22 29 -25 39
-16 50 7 9 8 15 2 15 -5 0 -13 -7 -16 -17z"/>
<path d="M1617 3302 c10 -18 22 -32 26 -32 11 0 -8 34 -28 50 -13 11 -13 8 2
-18z"/>
<path d="M1546 3221 l-29 -30 31 -37 c24 -29 29 -41 20 -51 -7 -8 -7 -13 0
-13 23 0 21 34 -3 66 l-26 34 21 30 c27 38 22 38 -14 1z"/>
<path d="M1587 3223 c-15 -15 -14 -19 15 -55 24 -31 28 -41 18 -53 -8 -10 -9
-15 -2 -15 25 0 23 41 -3 71 -20 25 -23 34 -14 45 17 21 6 26 -14 7z"/>
<path d="M2191 2712 c-19 -9 -35 -24 -37 -32 -1 -8 -3 -19 -4 -25 -11 -49 37
-115 85 -115 98 0 139 131 55 175 -37 19 -56 18 -99 -3z"/>
<path d="M1535 1989 c-5 -14 0 -28 13 -42 35 -40 36 -47 2 -82 l-33 -34 31
-37 c24 -29 29 -41 20 -51 -7 -9 -7 -13 1 -13 24 0 22 30 -4 65 l-27 35 26 34
c32 43 32 45 -1 80 -22 24 -24 32 -15 47 7 11 8 19 3 19 -5 0 -13 -9 -16 -21z"/>
<path d="M1630 1930 c0 -5 5 -10 11 -10 5 0 7 5 4 10 -3 6 -8 10 -11 10 -2 0
-4 -4 -4 -10z"/>
<path d="M1620 1899 c0 -5 5 -7 10 -4 6 3 10 8 10 11 0 2 -4 4 -10 4 -5 0 -10
-5 -10 -11z"/>
<path d="M1592 1867 c-9 -10 -5 -22 15 -50 23 -32 24 -39 12 -53 -12 -15 -12
-17 1 -12 23 7 24 35 1 67 -12 16 -18 36 -15 45 7 19 0 21 -14 3z"/>
<path d="M2432 4014 c-58 -40 5 -118 69 -84 39 21 11 100 -36 100 -6 0 -21 -7
-33 -16z"/>
<path d="M2955 2945 c-27 -26 -31 -51 -14 -88 24 -52 87 -59 129 -15 24 26 25
49 5 87 -24 48 -81 56 -120 16z"/>
<path d="M3440 2601 c-146 -45 -224 -198 -174 -344 18 -53 76 -116 132 -143
47 -22 139 -30 185 -15 53 18 113 65 143 113 36 56 45 166 20 232 -44 116
-192 191 -306 157z"/>
</g>
</svg>
