<?xml version="1.0" standalone="no"?>
<!DOCTYPE svg PUBLIC "-//W3C//DTD SVG 20010904//EN"
 "http://www.w3.org/TR/2001/REC-SVG-20010904/DTD/svg10.dtd">
<svg version="1.0" xmlns="http://www.w3.org/2000/svg"
 width="300.000000pt" height="300.000000pt" viewBox="0 0 300.000000 300.000000"
 preserveAspectRatio="xMidYMid meet">
<metadata>
Created by potrace 1.16, written by Peter Selinger 2001-2019
</metadata>
<g transform="translate(0.000000,300.000000) scale(0.100000,-0.100000)"
fill="#000000" stroke="none">
<path d="M1245 2986 c-222 -42 -417 -120 -581 -232 -326 -222 -542 -537 -637
-928 -19 -80 -21 -119 -21 -326 0 -207 2 -246 21 -326 142 -589 580 -1022
1163 -1150 70 -16 127 -19 315 -19 202 1 241 3 323 23 130 31 201 56 327 116
413 197 706 566 818 1030 19 80 21 119 21 326 0 207 -2 246 -21 326 -141 582
-567 1010 -1143 1146 -110 26 -475 35 -585 14z m195 -536 c0 -257 -3 -330 -12
-330 -131 0 -486 36 -501 50 -4 4 3 36 16 71 65 172 165 326 295 453 70 68 99
83 170 85 l32 1 0 -330z m247 320 c61 0 247 -208 333 -372 46 -87 103 -228 96
-236 -9 -9 -245 -32 -388 -38 l-168 -7 0 333 0 333 53 -7 c28 -3 62 -6 74 -6z
m-618 -79 c-96 -132 -210 -332 -234 -410 -4 -13 -14 -39 -21 -57 l-14 -32 -82
25 c-46 14 -114 39 -153 57 l-69 32 89 90 c125 125 253 214 405 280 88 39 97
40 79 15z m1072 -82 c103 -60 185 -123 273 -212 l88 -89 -43 -29 c-38 -25
-195 -89 -218 -89 -5 0 -19 28 -31 63 -37 101 -118 255 -186 354 l-63 91 63
-28 c35 -16 88 -43 117 -61z m484 -494 c72 -127 132 -320 150 -482 l7 -63
-171 0 -171 0 0 -70 0 -70 171 0 171 0 -7 -62 c-18 -163 -76 -353 -149 -482
-59 -104 -52 -100 -121 -67 -33 16 -101 41 -150 56 -50 16 -91 29 -92 29 -1 1
9 46 23 101 13 55 24 106 24 113 0 10 -17 12 -67 10 l-68 -3 -15 -95 c-14 -83
-18 -95 -35 -94 -11 1 -81 9 -155 18 -74 9 -197 19 -272 23 l-138 6 0 74 0 73
-60 0 -60 0 0 -69 0 -70 -42 -5 c-24 -3 -99 -8 -168 -11 -69 -3 -172 -12 -229
-20 -79 -11 -107 -12 -112 -3 -4 6 -10 36 -13 67 -14 117 -9 111 -82 111 -76
0 -75 2 -44 -129 11 -46 19 -85 18 -86 -2 -2 -43 -14 -93 -28 -49 -14 -123
-40 -164 -56 -41 -17 -77 -31 -81 -31 -14 0 -91 150 -129 250 -40 107 -64 206
-76 317 l-7 63 184 2 183 3 0 65 0 65 -182 3 c-166 2 -183 4 -183 20 0 9 7 61
15 115 22 144 90 336 158 443 l26 42 107 -43 c59 -24 137 -51 173 -60 l67 -16
-18 -87 c-28 -137 -29 -132 47 -132 36 0 65 4 65 9 0 31 23 167 29 174 4 4 54
1 112 -7 79 -12 376 -36 431 -36 5 0 8 -31 8 -70 l0 -70 60 0 60 0 0 70 c0 82
-13 76 169 85 69 3 190 14 270 25 79 11 146 19 147 17 5 -6 24 -138 24 -165
l0 -32 70 0 c49 0 70 4 70 13 0 6 -9 55 -20 107 -11 52 -20 98 -20 101 0 4 44
20 98 38 53 17 122 44 152 59 37 19 58 25 63 18 4 -6 23 -38 42 -71z m-1185
-1576 l0 -321 -67 6 c-38 4 -76 9 -85 12 -43 13 -213 235 -278 364 -36 72 -80
183 -80 204 0 20 239 49 453 54 l57 2 0 -321z m563 297 c54 -8 101 -17 104
-20 3 -3 -5 -34 -17 -68 -57 -155 -156 -318 -264 -435 -70 -75 -66 -74 -203
-89 l-63 -7 0 323 0 323 173 -7 c94 -4 216 -13 270 -20z m-1143 -169 c27 -65
78 -173 114 -242 l66 -124 -64 29 c-140 64 -267 151 -378 261 -43 42 -78 81
-78 86 0 6 24 21 53 33 65 29 219 80 230 77 5 -1 30 -55 57 -120z m1469 94
c44 -16 99 -40 122 -54 l42 -25 -84 -84 c-90 -90 -172 -152 -284 -216 -124
-70 -123 -71 -41 91 41 79 88 183 107 230 18 48 38 87 45 87 8 0 49 -13 93
-29z"/>
<path d="M650 1683 c0 -6 43 -193 95 -410 5 -20 12 -23 60 -23 l54 0 15 53 c8
28 26 93 39 142 l24 90 11 -40 c6 -22 23 -86 38 -143 l28 -103 54 3 55 3 47
195 c28 114 49 187 53 175 3 -11 24 -100 47 -198 l42 -178 56 3 55 3 36 132
c19 72 38 130 41 128 4 -3 22 -63 41 -135 l34 -131 55 3 55 3 46 190 c25 105
49 183 52 175 7 -16 87 -349 87 -362 0 -5 26 -8 58 -8 l57 0 35 135 c19 74 37
135 41 135 3 0 21 -61 40 -135 l34 -135 55 0 55 0 49 208 c27 114 51 213 54
220 3 9 -11 12 -51 12 l-54 0 -13 -62 c-6 -35 -19 -94 -28 -133 l-15 -70 -32
130 -32 130 -60 3 -60 3 -32 -123 c-18 -68 -33 -127 -35 -132 -2 -8 -9 23 -47
202 l-11 52 -97 0 -98 0 -29 -132 -28 -133 -26 105 c-15 58 -30 117 -33 133
-7 26 -10 27 -67 27 l-59 0 -10 -37 c-5 -21 -20 -78 -33 -126 -25 -100 -25
-100 -58 56 l-23 107 -98 0 -97 0 -17 -77 c-9 -43 -23 -103 -29 -133 l-13 -55
-22 95 c-12 52 -27 112 -33 133 l-11 37 -58 0 -58 0 -12 -42 c-7 -24 -22 -81
-34 -128 l-22 -85 -11 40 c-6 22 -18 79 -28 128 l-17 87 -53 0 c-30 0 -54 -3
-54 -7z"/>
</g>
</svg>
