<?xml version="1.0" standalone="no"?>
<!DOCTYPE svg PUBLIC "-//W3C//DTD SVG 20010904//EN"
 "http://www.w3.org/TR/2001/REC-SVG-20010904/DTD/svg10.dtd">
<svg version="1.0" xmlns="http://www.w3.org/2000/svg"
 width="512.000000pt" height="512.000000pt" viewBox="0 0 512.000000 512.000000"
 preserveAspectRatio="xMidYMid meet">
<metadata>
Created by potrace 1.16, written by Peter Selinger 2001-2019
</metadata>
<g transform="translate(0.000000,512.000000) scale(0.100000,-0.100000)"
fill="#000000" stroke="none">
<path d="M2163 4787 c-226 -89 -420 -171 -432 -181 -21 -19 -21 -19 -21 -823
l0 -803 -693 0 c-660 0 -695 -1 -710 -18 -16 -17 -17 -106 -17 -1075 l0 -1057
-83 0 c-74 0 -86 -3 -105 -23 -29 -31 -28 -72 3 -102 l24 -25 2374 0 2374 0
27 21 c33 26 36 79 6 109 -17 17 -33 20 -100 20 l-80 0 -2 1085 c-3 1069 -3
1085 -23 1104 -11 11 -184 116 -385 233 l-365 213 -172 3 -173 3 0 514 0 514
-22 24 c-15 16 -186 93 -505 226 -264 110 -487 201 -495 201 -7 -1 -198 -74
-425 -163z m357 -1992 l0 -1965 -330 0 -330 0 0 1838 0 1838 318 126 c174 69
323 126 330 127 9 1 12 -398 12 -1964z m553 1794 l387 -162 0 -1799 0 -1798
-400 0 -400 0 0 1966 c0 1569 3 1965 13 1961 6 -3 186 -78 400 -168z m777
-2514 l0 -1245 -120 0 -120 0 0 1245 0 1245 120 0 120 0 0 -1245z m463 1005
l267 -155 0 -1047 0 -1048 -290 0 -290 0 0 1215 0 1216 24 -13 c12 -7 143 -83
289 -168z m-2603 -1245 l0 -1005 -635 0 -635 0 0 1005 0 1005 635 0 635 0 0
-1005z"/>
<path d="M2295 4445 c-23 -22 -25 -32 -25 -115 0 -83 2 -93 25 -115 13 -14 36
-25 50 -25 14 0 37 11 50 25 23 22 25 32 25 113 0 75 -3 93 -21 116 -27 34
-71 35 -104 1z"/>
<path d="M1980 4370 c-17 -17 -20 -33 -20 -120 0 -113 14 -140 70 -140 56 0
70 27 70 140 0 113 -14 140 -70 140 -17 0 -39 -9 -50 -20z"/>
<path d="M2295 3925 c-23 -22 -25 -32 -25 -115 0 -83 2 -93 25 -115 13 -14 36
-25 50 -25 14 0 37 11 50 25 23 22 25 32 25 115 0 83 -2 93 -25 115 -13 14
-36 25 -50 25 -14 0 -37 -11 -50 -25z"/>
<path d="M1980 3850 c-17 -17 -20 -33 -20 -120 0 -113 14 -140 70 -140 56 0
70 27 70 140 0 113 -14 140 -70 140 -17 0 -39 -9 -50 -20z"/>
<path d="M2295 3405 c-23 -22 -25 -32 -25 -115 0 -83 2 -93 25 -115 13 -14 36
-25 50 -25 14 0 37 11 50 25 23 22 25 32 25 115 0 83 -2 93 -25 115 -13 14
-36 25 -50 25 -14 0 -37 -11 -50 -25z"/>
<path d="M1980 3330 c-17 -17 -20 -33 -20 -120 0 -113 14 -140 70 -140 56 0
70 27 70 140 0 113 -14 140 -70 140 -17 0 -39 -9 -50 -20z"/>
<path d="M2295 2885 c-23 -22 -25 -32 -25 -115 0 -83 2 -93 25 -115 13 -14 36
-25 50 -25 14 0 37 11 50 25 23 22 25 32 25 115 0 83 -2 93 -25 115 -13 14
-36 25 -50 25 -14 0 -37 -11 -50 -25z"/>
<path d="M2000 2823 c-33 -12 -40 -37 -40 -135 0 -111 14 -138 70 -138 56 0
70 27 70 138 0 103 -3 113 -37 131 -23 12 -39 13 -63 4z"/>
<path d="M2295 2365 c-23 -22 -25 -32 -25 -113 0 -107 18 -142 75 -142 57 0
75 35 75 142 0 81 -2 91 -25 113 -13 14 -36 25 -50 25 -14 0 -37 -11 -50 -25z"/>
<path d="M1995 2298 c-32 -18 -35 -28 -35 -130 0 -111 14 -138 70 -138 56 0
70 27 70 138 0 103 -3 113 -37 131 -27 14 -42 14 -68 -1z"/>
<path d="M2295 1845 c-23 -22 -25 -32 -25 -113 0 -107 18 -142 75 -142 57 0
75 35 75 142 0 81 -2 91 -25 113 -13 14 -36 25 -50 25 -14 0 -37 -11 -50 -25z"/>
<path d="M1995 1778 c-32 -18 -35 -28 -35 -135 0 -94 2 -103 22 -117 12 -9 34
-16 48 -16 14 0 36 7 48 16 20 14 22 23 22 117 0 109 -3 118 -37 136 -27 14
-42 14 -68 -1z"/>
<path d="M2295 1325 c-23 -22 -25 -32 -25 -113 0 -75 3 -93 21 -116 27 -34 77
-36 107 -3 19 20 22 35 22 116 0 84 -2 94 -25 116 -13 14 -36 25 -50 25 -14 0
-37 -11 -50 -25z"/>
<path d="M1986 1249 c-25 -20 -26 -24 -26 -124 0 -96 2 -105 22 -119 29 -20
67 -20 96 0 20 14 22 23 22 119 0 100 -1 104 -26 124 -15 12 -34 21 -44 21
-10 0 -29 -9 -44 -21z"/>
<path d="M2793 4530 c-34 -14 -43 -42 -43 -139 0 -106 14 -131 74 -131 56 0
76 35 76 131 0 92 -12 124 -53 139 -16 5 -30 10 -31 9 -1 0 -11 -4 -23 -9z"/>
<path d="M3005 4425 c-23 -22 -25 -32 -25 -113 0 -75 3 -93 21 -116 27 -34 77
-36 107 -3 19 21 22 34 22 119 0 92 -1 97 -26 117 -35 28 -69 26 -99 -4z"/>
<path d="M3240 4340 c-17 -17 -20 -33 -20 -120 0 -113 14 -140 70 -140 56 0
70 27 70 140 0 113 -14 140 -70 140 -17 0 -39 -9 -50 -20z"/>
<path d="M2777 4000 c-26 -21 -27 -24 -27 -121 0 -86 3 -102 20 -119 30 -30
83 -27 110 7 19 25 21 38 18 120 -3 101 -12 118 -63 129 -22 4 -38 0 -58 -16z"/>
<path d="M3005 3905 c-23 -22 -25 -32 -25 -115 0 -83 2 -93 25 -115 30 -30 64
-32 99 -4 25 20 26 24 26 119 0 95 -1 99 -26 119 -35 28 -69 26 -99 -4z"/>
<path d="M3240 3820 c-17 -17 -20 -33 -20 -119 0 -107 7 -125 55 -137 23 -6
64 10 77 30 4 6 8 55 8 109 0 110 -14 137 -70 137 -17 0 -39 -9 -50 -20z"/>
<path d="M2776 3479 c-25 -20 -26 -25 -26 -118 0 -89 2 -99 23 -119 31 -29 72
-28 102 3 23 22 25 32 25 115 0 83 -2 93 -25 115 -30 30 -64 32 -99 4z"/>
<path d="M3005 3385 c-23 -22 -25 -32 -25 -115 0 -83 2 -93 25 -115 30 -30 64
-32 99 -4 25 20 26 25 26 118 0 89 -2 99 -23 119 -31 29 -72 28 -102 -3z"/>
<path d="M3242 3304 c-20 -14 -22 -23 -22 -119 0 -100 1 -104 26 -124 15 -12
34 -21 44 -21 10 0 29 9 44 21 25 20 26 24 26 124 0 96 -2 105 -22 119 -12 9
-34 16 -48 16 -14 0 -36 -7 -48 -16z"/>
<path d="M2772 2957 c-19 -21 -22 -34 -22 -119 0 -92 1 -97 26 -117 33 -26 65
-27 95 -2 22 17 24 29 27 115 4 91 3 96 -22 121 -32 32 -75 33 -104 2z"/>
<path d="M3000 2863 c-19 -25 -21 -38 -18 -120 3 -102 12 -118 65 -129 26 -5
37 -1 57 19 24 24 26 32 26 122 0 82 -3 98 -20 115 -30 30 -83 27 -110 -7z"/>
<path d="M3237 2782 c-26 -28 -24 -212 1 -235 25 -23 85 -22 105 1 26 28 24
212 -1 235 -25 23 -85 22 -105 -1z"/>
<path d="M2770 2440 c-17 -17 -20 -33 -20 -119 0 -97 1 -100 27 -121 20 -16
36 -20 58 -16 51 11 60 28 63 129 3 82 1 95 -18 120 -27 34 -80 37 -110 7z"/>
<path d="M3001 2344 c-17 -22 -21 -41 -21 -105 0 -96 11 -126 47 -136 80 -21
103 9 103 133 0 81 -3 97 -20 114 -30 30 -83 27 -109 -6z"/>
<path d="M3237 2262 c-26 -28 -24 -212 1 -235 25 -23 85 -22 105 1 26 28 24
212 -1 235 -25 23 -85 22 -105 -1z"/>
<path d="M2770 1920 c-17 -17 -20 -33 -20 -111 0 -50 5 -99 11 -110 24 -46
105 -42 128 7 6 14 11 60 11 103 0 64 -4 83 -21 105 -26 33 -79 36 -109 6z"/>
<path d="M3014 1842 c-24 -16 -34 -54 -34 -127 0 -105 17 -135 78 -135 58 0
72 26 72 133 0 112 -12 137 -68 137 -20 0 -42 -4 -48 -8z"/>
<path d="M3246 1749 c-25 -20 -26 -24 -26 -124 0 -96 2 -105 22 -119 12 -9 34
-16 48 -16 14 0 36 7 48 16 20 14 22 23 22 119 0 100 -1 104 -26 124 -15 12
-34 21 -44 21 -10 0 -29 -9 -44 -21z"/>
<path d="M2766 1398 c-12 -16 -16 -47 -16 -113 0 -110 12 -135 68 -135 66 0
82 27 82 135 0 108 -16 135 -82 135 -27 0 -41 -6 -52 -22z"/>
<path d="M3022 1330 c-31 -13 -42 -49 -42 -139 0 -96 20 -131 76 -131 60 0 74
25 74 134 0 75 -4 98 -17 114 -22 25 -60 35 -91 22z"/>
<path d="M3255 1238 c-32 -18 -35 -28 -35 -130 0 -111 14 -138 70 -138 56 0
70 27 70 138 0 103 -3 113 -37 131 -27 14 -42 14 -68 -1z"/>
<path d="M4110 2980 c-16 -16 -20 -33 -20 -83 0 -77 21 -107 75 -107 54 0 75
30 75 107 0 76 -20 103 -75 103 -22 0 -43 -8 -55 -20z"/>
<path d="M4349 2841 c-21 -17 -24 -28 -24 -91 0 -63 3 -74 24 -91 30 -25 72
-24 99 1 19 18 22 32 22 90 0 62 -2 70 -26 89 -33 26 -65 27 -95 2z"/>
<path d="M4110 2638 c-16 -17 -20 -35 -20 -85 0 -76 20 -103 75 -103 56 0 75
27 75 105 0 52 -4 69 -20 85 -27 27 -83 27 -110 -2z"/>
<path d="M4363 2508 c-48 -23 -57 -154 -13 -190 29 -24 75 -23 100 2 16 16 20
33 20 89 0 63 -2 71 -26 90 -29 23 -48 25 -81 9z"/>
<path d="M4111 2294 c-16 -20 -21 -41 -21 -84 0 -74 21 -104 75 -104 54 0 75
30 75 104 0 73 -25 110 -75 110 -24 0 -39 -7 -54 -26z"/>
<path d="M4344 2149 c-14 -16 -19 -36 -19 -84 0 -76 20 -105 72 -105 54 0 73
28 73 108 0 54 -4 72 -18 85 -27 24 -85 22 -108 -4z"/>
<path d="M4115 1955 c-21 -20 -25 -34 -25 -85 0 -51 4 -65 25 -85 31 -32 69
-32 100 0 21 20 25 34 25 85 0 51 -4 65 -25 85 -13 14 -36 25 -50 25 -14 0
-37 -11 -50 -25z"/>
<path d="M4344 1809 c-14 -16 -19 -36 -19 -84 0 -78 19 -105 75 -105 54 0 70
23 70 101 0 83 -17 109 -69 109 -26 0 -44 -7 -57 -21z"/>
<path d="M4115 1615 c-21 -20 -25 -34 -25 -85 0 -51 4 -65 25 -85 31 -32 69
-32 100 0 21 20 25 34 25 85 0 51 -4 65 -25 85 -13 14 -36 25 -50 25 -14 0
-37 -11 -50 -25z"/>
<path d="M4345 1470 c-22 -25 -31 -98 -16 -142 19 -57 77 -71 124 -30 26 23
24 145 -3 172 -26 26 -81 26 -105 0z"/>
<path d="M4133 1290 c-31 -13 -43 -41 -43 -103 0 -70 26 -107 75 -107 50 0 75
37 75 110 0 40 -5 64 -17 78 -21 25 -60 35 -90 22z"/>
<path d="M4350 1132 c-31 -25 -40 -114 -16 -160 21 -41 68 -52 105 -25 23 18
26 28 29 91 2 61 0 74 -18 92 -25 25 -71 26 -100 2z"/>
<path d="M545 2695 c-14 -13 -25 -36 -25 -50 0 -14 11 -37 25 -50 22 -23 31
-25 123 -25 120 0 146 13 146 75 0 62 -26 75 -146 75 -92 0 -101 -2 -123 -25z"/>
<path d="M950 2700 c-31 -31 -30 -85 2 -112 16 -15 39 -18 118 -18 83 0 101 3
124 21 34 27 35 71 1 104 -22 23 -31 25 -125 25 -87 0 -103 -3 -120 -20z"/>
<path d="M1356 2699 c-34 -27 -36 -77 -3 -107 21 -20 34 -22 125 -22 117 0
142 13 142 73 0 62 -29 77 -148 77 -75 0 -93 -3 -116 -21z"/>
<path d="M545 2376 c-14 -10 -20 -26 -20 -56 0 -62 17 -70 146 -70 104 0 108
1 128 26 12 15 21 34 21 44 0 10 -9 29 -21 44 -20 25 -24 26 -128 26 -76 0
-113 -4 -126 -14z"/>
<path d="M945 2370 c-10 -11 -18 -34 -18 -50 0 -16 8 -39 18 -50 16 -18 31
-20 127 -20 122 0 148 12 148 70 0 58 -26 70 -148 70 -96 0 -111 -2 -127 -20z"/>
<path d="M1346 2368 c-9 -12 -16 -34 -16 -48 0 -14 7 -36 16 -48 14 -21 23
-22 128 -22 128 0 146 9 146 72 0 59 -20 68 -148 68 -103 0 -112 -2 -126 -22z"/>
<path d="M545 2045 c-14 -13 -25 -36 -25 -50 0 -14 11 -37 25 -50 22 -23 31
-25 123 -25 120 0 146 13 146 75 0 62 -26 75 -146 75 -92 0 -101 -2 -123 -25z"/>
<path d="M952 2053 c-32 -28 -33 -82 -2 -113 17 -17 33 -20 120 -20 94 0 103
2 125 25 34 33 33 77 -1 104 -23 18 -41 21 -124 21 -79 0 -102 -3 -118 -17z"/>
<path d="M1352 2047 c-31 -33 -29 -80 4 -106 23 -18 41 -21 116 -21 119 0 148
15 148 78 0 59 -25 72 -143 72 -95 0 -105 -2 -125 -23z"/>
<path d="M540 1720 c-23 -23 -25 -48 -8 -85 15 -33 32 -36 152 -33 94 3 100 4
119 30 13 18 18 34 13 51 -12 51 -29 57 -147 57 -96 0 -111 -2 -129 -20z"/>
<path d="M945 1720 c-10 -11 -18 -34 -18 -50 0 -16 8 -39 18 -50 16 -18 31
-20 127 -20 122 0 148 12 148 70 0 58 -26 70 -148 70 -96 0 -111 -2 -127 -20z"/>
<path d="M1346 1718 c-22 -31 -20 -74 4 -98 18 -18 33 -20 128 -20 124 0 142
9 142 72 0 59 -20 68 -148 68 -103 0 -112 -2 -126 -22z"/>
<path d="M545 1395 c-14 -13 -25 -36 -25 -50 0 -14 11 -37 25 -50 22 -23 31
-25 123 -25 113 0 137 11 148 67 5 26 1 37 -19 57 -25 24 -32 26 -127 26 -94
0 -103 -2 -125 -25z"/>
<path d="M952 1403 c-32 -28 -33 -82 -2 -113 17 -17 33 -20 120 -20 94 0 103
2 125 25 32 31 33 74 2 103 -21 20 -34 22 -124 22 -82 0 -105 -3 -121 -17z"/>
<path d="M1352 1400 c-32 -30 -30 -82 4 -109 23 -18 41 -21 119 -21 111 0 145
18 145 76 0 61 -24 74 -143 74 -90 0 -106 -3 -125 -20z"/>
<path d="M540 1070 c-26 -26 -25 -60 1 -94 21 -26 22 -27 131 -24 107 3 112 4
131 30 13 18 18 34 13 51 -12 51 -29 57 -147 57 -96 0 -111 -2 -129 -20z"/>
<path d="M945 1070 c-22 -25 -22 -76 1 -101 15 -16 32 -19 126 -19 95 0 110 2
128 20 24 24 26 67 4 98 -14 21 -23 22 -128 22 -100 0 -115 -2 -131 -20z"/>
<path d="M1347 1072 c-23 -25 -21 -78 3 -102 17 -17 33 -20 123 -20 124 0 147
11 147 69 0 62 -18 71 -147 71 -94 0 -112 -3 -126 -18z"/>
</g>
</svg>
