<?xml version="1.0" standalone="no"?>
<!DOCTYPE svg PUBLIC "-//W3C//DTD SVG 20010904//EN"
 "http://www.w3.org/TR/2001/REC-SVG-20010904/DTD/svg10.dtd">
<svg version="1.0" xmlns="http://www.w3.org/2000/svg"
 width="900.000000pt" height="512.000000pt" viewBox="0 0 900.000000 512.000000"
 preserveAspectRatio="xMidYMid meet">

<g transform="translate(0.000000,512.000000) scale(0.100000,-0.100000)"
fill="#000000" stroke="none">
<path d="M3650 5074 c-998 -133 -1743 -1005 -1707 -1999 15 -425 144 -789 400
-1130 77 -102 269 -293 372 -371 316 -237 682 -371 1084 -398 108 -7 340 10
466 34 257 50 551 176 760 327 l60 43 23 -52 c20 -46 121 -151 715 -745 610
-610 699 -695 749 -718 99 -45 213 -43 308 5 52 27 117 96 148 159 23 48 27
69 27 141 0 158 34 117 -757 906 -620 619 -698 693 -743 710 -27 9 -52 19 -53
20 -2 1 17 36 44 76 150 232 260 534 294 813 17 136 14 384 -5 511 -67 437
-250 800 -560 1109 -167 168 -336 288 -541 384 -336 159 -728 222 -1084 175z
m505 -210 c557 -83 1035 -425 1294 -924 123 -238 183 -459 197 -728 14 -285
-44 -573 -171 -837 -193 -402 -557 -735 -965 -883 -222 -81 -374 -107 -615
-106 -294 0 -481 41 -750 164 -395 180 -741 559 -893 980 -117 322 -137 703
-56 1025 159 624 636 1106 1264 1274 209 56 467 69 695 35z m1305 -3058 c16
-3 276 -257 706 -688 610 -611 682 -687 688 -721 9 -49 -21 -115 -63 -140 -35
-21 -102 -22 -139 -3 -33 18 -1345 1332 -1361 1363 -6 12 -11 42 -11 67 0 36
6 52 31 81 30 34 78 56 109 50 8 -2 26 -6 40 -9z"/>
</g>
</svg>
