<?xml version="1.0" standalone="no"?>
<!DOCTYPE svg PUBLIC "-//W3C//DTD SVG 20010904//EN"
 "http://www.w3.org/TR/2001/REC-SVG-20010904/DTD/svg10.dtd">
<svg version="1.0" xmlns="http://www.w3.org/2000/svg"
 width="1920.000000pt" height="1920.000000pt" viewBox="0 0 1920.000000 1920.000000"
 preserveAspectRatio="xMidYMid meet">

<g transform="translate(0.000000,1920.000000) scale(0.100000,-0.100000)"
fill="#000000" stroke="none">
<path d="M9285 16785 c-437 -48 -865 -200 -1210 -430 -686 -457 -1076 -1148
-1145 -2026 -8 -102 -10 -638 -8 -1829 4 -1827 2 -1741 59 -2060 152 -849 567
-1520 1196 -1939 611 -406 1362 -530 2069 -341 685 183 1252 626 1612 1259
209 369 332 761 399 1271 15 110 17 322 20 1810 3 1193 1 1727 -7 1829 -65
823 -421 1491 -1036 1945 -393 290 -873 468 -1389 516 -146 13 -411 11 -560
-5z m470 -886 c709 -61 1259 -449 1493 -1054 75 -193 116 -387 132 -625 13
-195 13 -3010 0 -3240 -51 -878 -418 -1518 -1053 -1837 -526 -263 -1167 -223
-1659 104 -511 341 -804 939 -848 1736 -13 227 -13 3037 0 3232 21 327 98 604
236 847 141 250 373 477 634 621 175 96 454 184 660 206 58 6 119 13 135 15
64 7 155 5 270 -5z"/>
<path d="M5705 12196 c-174 -43 -306 -188 -334 -366 -14 -85 -14 -1379 -1
-1640 33 -632 156 -1161 385 -1661 408 -887 1116 -1563 2062 -1968 351 -150
784 -268 1158 -316 72 -9 140 -19 153 -21 l22 -4 -2 -1463 -3 -1462 -1200 -5
-1200 -5 -55 -22 c-111 -46 -208 -142 -252 -253 -19 -45 -23 -75 -23 -165 0
-99 3 -116 28 -169 61 -130 156 -216 284 -256 65 -20 89 -20 2873 -20 2784 0
2808 0 2873 20 128 40 223 126 284 256 25 53 28 70 28 169 0 90 -4 120 -23
165 -44 111 -141 207 -252 253 l-55 22 -1200 5 -1200 5 -3 1462 -2 1463 22 4
c13 2 82 12 153 21 374 48 807 166 1158 316 1380 590 2244 1758 2417 3264 11
93 24 260 30 370 13 269 13 1550 -1 1635 -34 219 -225 380 -447 380 -201 -1
-395 -162 -432 -361 -6 -31 -10 -361 -10 -818 0 -783 -5 -939 -41 -1179 -35
-244 -68 -388 -136 -596 -151 -463 -400 -875 -728 -1201 -519 -517 -1221 -839
-2030 -932 -190 -22 -620 -22 -810 0 -809 93 -1514 416 -2030 932 -228 227
-407 478 -555 780 -164 333 -251 620 -310 1019 -34 235 -40 395 -40 1177 0
457 -4 787 -10 818 -16 83 -58 161 -124 227 -115 114 -268 158 -421 120z"/>
</g>
</svg>
