<?xml version="1.0" standalone="no"?>
<!DOCTYPE svg PUBLIC "-//W3C//DTD SVG 20010904//EN"
 "http://www.w3.org/TR/2001/REC-SVG-20010904/DTD/svg10.dtd">
<svg version="1.0" xmlns="http://www.w3.org/2000/svg"
 width="1024.000000pt" height="1024.000000pt" viewBox="0 0 1024.000000 1024.000000"
 preserveAspectRatio="xMidYMid meet">
<metadata>
Created by potrace 1.16, written by Peter Selinger 2001-2019
</metadata>
<g transform="translate(0.000000,1024.000000) scale(0.100000,-0.100000)"
fill="#fff" stroke="black" stroke-width="10">
<path d="M4835 8974 c-307 -31 -518 -69 -752 -134 -891 -248 -1670 -814 -2187
-1590 -329 -493 -535 -1044 -618 -1653 -20 -140 -23 -207 -23 -492 0 -372 14
-514 80 -819 326 -1509 1527 -2691 3035 -2985 297 -57 395 -66 750 -66 407 0
592 21 937 105 955 235 1787 830 2328 1665 324 501 519 1048 597 1675 18 142
18 709 0 850 -77 610 -264 1146 -571 1635 -555 884 -1447 1510 -2467 1730
-282 61 -432 76 -769 80 -165 1 -318 1 -340 -1z m655 -494 c774 -89 1470 -419
2016 -956 778 -766 1138 -1851 974 -2934 -204 -1347 -1213 -2454 -2535 -2780
-284 -70 -500 -95 -820 -95 -253 1 -375 10 -584 46 -780 133 -1524 564 -2026
1174 -436 530 -687 1126 -767 1820 -16 142 -16 558 0 700 66 574 249 1078 560
1543 558 832 1483 1388 2467 1482 61 5 128 12 150 14 71 7 467 -3 565 -14z"/>
<path d="M3081 6804 c-329 -88 -475 -474 -286 -758 167 -251 530 -291 754 -83
170 159 201 440 70 636 -117 175 -337 259 -538 205z"/>
<path d="M4157 6709 c-63 -15 -138 -59 -188 -110 -206 -212 -112 -572 171
-653 50 -15 210 -16 1580 -14 l1525 3 67 32 c85 40 151 106 191 191 29 61 32
75 32 167 0 93 -2 105 -33 167 -41 84 -128 167 -209 200 l-58 23 -1520 2
c-861 0 -1536 -3 -1558 -8z"/>
<path d="M3055 5576 c-110 -35 -185 -90 -250 -181 -59 -83 -86 -162 -92 -267
-17 -269 187 -499 457 -515 102 -6 178 8 258 48 265 132 355 472 191 718 -123
185 -354 266 -564 197z"/>
<path d="M4145 5486 c-154 -49 -259 -168 -283 -322 -25 -151 47 -310 175 -392
104 -66 0 -63 1683 -60 l1525 3 67 32 c84 40 151 107 192 193 28 59 31 74 31
165 0 91 -3 106 -31 165 -39 82 -108 151 -193 193 l-66 32 -1530 2 c-1216 1
-1538 -1 -1570 -11z"/>
<path d="M3077 4365 c-118 -32 -240 -124 -299 -225 -68 -117 -86 -270 -47
-396 28 -92 62 -147 130 -214 101 -100 229 -146 378 -138 107 7 195 40 276
106 277 223 237 656 -76 826 -97 53 -253 71 -362 41z"/>
<path d="M4135 4262 c-75 -26 -139 -67 -179 -114 -174 -203 -110 -507 132
-621 l67 -32 1545 0 1545 0 65 31 c83 39 155 111 194 194 28 59 31 74 31 165
0 91 -3 106 -31 165 -39 83 -111 155 -194 194 l-65 31 -1530 2 c-1431 2 -1533
1 -1580 -15z"/>
</g>
</svg>
